<svg width="46" height="72" viewBox="0 0 46 72" fill="none" xmlns="http://www.w3.org/2000/svg">
<path id="Vector" d="M8.98543 71.7344C6.08403 71.7344 3.86133 70.9611 2.31734 69.4171C0.773349 67.8731 0 65.6504 0 62.749V9.68818C0 6.78947 0.749011 4.5884 2.24703 3.09038C3.74235 1.59506 5.84878 0.843347 8.56361 0.843347C11.2757 0.843347 13.3822 1.59236 14.8802 3.09038C16.3755 4.5884 17.1272 6.78947 17.1272 9.68818V18.533H15.7238C17.0326 12.9168 19.6068 8.66064 23.4438 5.75924C27.2808 2.86054 32.3805 1.12728 38.7431 0.564842C40.7089 0.378266 42.2745 0.870383 43.4453 2.03852C44.6135 3.20935 45.2922 5.01024 45.4815 7.44385C45.6681 9.78552 45.1299 11.6783 43.8672 13.1304C42.6044 14.5824 40.7089 15.4477 38.1834 15.7262L35.0954 16.0047C29.3872 16.5672 25.0797 18.3221 22.181 21.2694C19.2796 24.2168 17.8303 28.3594 17.8303 33.6917V62.749C17.8303 65.6504 17.0812 67.8731 15.5832 69.4171C14.0852 70.9611 11.8868 71.7344 8.98543 71.7344Z" fill="#FFAC30"/>
</svg>
