<svg width="25" height="21" viewBox="0 0 25 21" fill="none" xmlns="http://www.w3.org/2000/svg">
<g id="Eyeoff">
<path id="Vector" d="M21.6671 21C21.5576 21.0002 21.4492 20.9776 21.3481 20.9335C21.247 20.8895 21.1552 20.8248 21.078 20.7433L2.74505 1.47879C2.59537 1.31324 2.51316 1.09279 2.51594 0.86445C2.51872 0.636112 2.60628 0.417948 2.75994 0.256475C2.91361 0.0950018 3.12122 0.00299531 3.33852 7.18492e-05C3.55581 -0.00285161 3.7656 0.0835395 3.92315 0.240826L22.2561 19.5054C22.3726 19.6278 22.4519 19.7838 22.484 19.9536C22.5161 20.1234 22.4996 20.2994 22.4366 20.4594C22.3735 20.6193 22.2668 20.7561 22.1298 20.8523C21.9929 20.9485 21.8318 20.9999 21.6671 21Z" fill="#D9D9D9"/>
<path id="Vector_2" d="M12.4831 17.4973C10.3222 17.4973 8.23837 16.8253 6.28945 15.4997C4.51501 14.2957 2.91765 12.5712 1.66975 10.5194V10.5151C2.70828 8.95145 3.84575 7.6292 5.0676 6.56309C5.07865 6.55338 5.08767 6.54136 5.09408 6.5278C5.10049 6.51425 5.10415 6.49944 5.10484 6.48432C5.10552 6.46919 5.10322 6.45409 5.09806 6.43995C5.09291 6.42581 5.08502 6.41295 5.07489 6.40218L4.03741 5.31363C4.01898 5.2941 3.99422 5.28257 3.96806 5.28136C3.94191 5.28014 3.91628 5.28932 3.89627 5.30706C2.59838 6.45636 1.39372 7.86618 0.298428 9.5168C0.109987 9.80101 0.00620473 10.1377 0.000269595 10.484C-0.00566554 10.8303 0.0865144 11.1707 0.265096 11.4619C1.64059 13.7238 3.41086 15.6289 5.38374 16.9703C7.60505 18.4825 9.99563 19.2487 12.4831 19.2487C13.8257 19.2443 15.1589 19.0118 16.4309 18.5602C16.4477 18.5542 16.4627 18.5438 16.4746 18.53C16.4865 18.5162 16.4949 18.4995 16.4989 18.4813C16.5029 18.4632 16.5025 18.4443 16.4976 18.4264C16.4927 18.4085 16.4836 18.3922 16.471 18.379L15.3471 17.198C15.3212 17.1715 15.2892 17.1525 15.2542 17.1429C15.2193 17.1333 15.1825 17.1334 15.1476 17.1433C14.2772 17.3788 13.3819 17.4978 12.4831 17.4973Z" fill="#D9D9D9"/>
<path id="Vector_3" d="M24.7315 9.53967C23.3534 7.30017 21.5654 5.3978 19.5613 4.03779C17.3442 2.53166 14.8963 1.73535 12.4828 1.73535C11.1544 1.73783 9.83584 1.9752 8.58238 2.43752C8.56568 2.44363 8.55074 2.4541 8.53895 2.46796C8.52717 2.48181 8.51893 2.49859 8.51503 2.51671C8.51112 2.53483 8.51167 2.5537 8.51662 2.57154C8.52157 2.58938 8.53076 2.6056 8.54332 2.61867L9.66569 3.79808C9.69182 3.82507 9.72426 3.84434 9.75974 3.85395C9.79522 3.86356 9.83248 3.86316 9.86777 3.85281C10.7203 3.61046 11.5996 3.48735 12.4828 3.48667C14.602 3.48667 16.6796 4.16695 18.6572 5.51164C20.4649 6.73756 22.0811 8.46042 23.3321 10.492C23.333 10.4932 23.3335 10.4947 23.3335 10.4963C23.3335 10.4979 23.333 10.4995 23.3321 10.5007C22.424 12.003 21.2971 13.3461 19.9926 14.4811C19.9814 14.4908 19.9723 14.5028 19.9658 14.5164C19.9592 14.53 19.9555 14.5449 19.9548 14.56C19.954 14.5752 19.9563 14.5904 19.9615 14.6046C19.9666 14.6188 19.9746 14.6318 19.9847 14.6426L21.0212 15.7311C21.0395 15.7506 21.0641 15.7621 21.0902 15.7634C21.1162 15.7648 21.1418 15.7558 21.1618 15.7383C22.5545 14.506 23.76 13.0577 24.7367 11.4431C24.9094 11.1586 25.0007 10.828 24.9997 10.4906C24.9988 10.1532 24.9057 9.82313 24.7315 9.53967Z" fill="#D9D9D9"/>
<path id="Vector_4" d="M12.5004 5.23828C12.1259 5.23807 11.7526 5.28213 11.3874 5.36963C11.369 5.37365 11.3519 5.38286 11.3381 5.39626C11.3242 5.40967 11.3141 5.42677 11.3087 5.44575C11.3034 5.46473 11.303 5.48488 11.3077 5.50405C11.3124 5.52322 11.322 5.54069 11.3353 5.55461L17.1993 11.7149C17.2125 11.729 17.2292 11.739 17.2474 11.7439C17.2657 11.7488 17.2848 11.7485 17.3029 11.7429C17.321 11.7372 17.3372 11.7266 17.35 11.712C17.3627 11.6975 17.3715 11.6795 17.3753 11.6602C17.5423 10.8907 17.5421 10.0916 17.3749 9.3222C17.2076 8.55281 16.8776 7.8329 16.4092 7.21593C15.9409 6.59896 15.3463 6.10079 14.6696 5.75842C13.9929 5.41605 13.2515 5.23827 12.5004 5.23828Z" fill="#D9D9D9"/>
<path id="Vector_5" d="M7.80209 9.26978C7.78884 9.25571 7.77221 9.24568 7.75397 9.24075C7.73572 9.23582 7.71655 9.23619 7.69849 9.2418C7.68043 9.24742 7.66415 9.25807 7.65139 9.27264C7.63864 9.2872 7.62988 9.30513 7.62605 9.32451C7.43717 10.1916 7.46089 11.0949 7.69498 11.9497C7.92907 12.8046 8.36587 13.5829 8.96444 14.2119C9.563 14.8409 10.3037 15.2999 11.1172 15.5459C11.9307 15.7919 12.7903 15.8168 13.6155 15.6183C13.634 15.6143 13.651 15.6051 13.6649 15.5917C13.6787 15.5783 13.6889 15.5612 13.6942 15.5422C13.6996 15.5232 13.6999 15.5031 13.6952 15.4839C13.6905 15.4647 13.681 15.4473 13.6676 15.4333L7.80209 9.26978Z" fill="#D9D9D9"/>
</g>
</svg>
