<svg width="26" height="27" viewBox="0 0 26 27" fill="none" xmlns="http://www.w3.org/2000/svg">
<g id="Facebook">
<path id="Vector" d="M25.8891 19.257C25.8891 23.9573 23.087 26.7594 18.3867 26.7594H16.85C16.1398 26.7594 15.5587 26.1783 15.5587 25.4681V18.0174C15.5587 17.6687 15.8428 17.3717 16.1915 17.3717L18.4641 17.333C18.6449 17.3201 18.7999 17.191 18.8386 17.0102L19.2906 14.5438C19.3293 14.3114 19.1485 14.0919 18.9032 14.0919L16.1527 14.1306C15.7912 14.1306 15.5071 13.8465 15.4942 13.4979L15.4425 10.3342C15.4425 10.1276 15.6104 9.94682 15.8299 9.94682L18.929 9.89516C19.1485 9.89516 19.3164 9.72731 19.3164 9.50779L19.2647 6.40866C19.2647 6.18914 19.0969 6.02129 18.8774 6.02129L15.3909 6.07295C13.2473 6.11169 11.5428 7.86783 11.5816 10.0114L11.6461 13.5624C11.659 13.924 11.375 14.2081 11.0134 14.221L9.46383 14.2468C9.24431 14.2468 9.07646 14.4147 9.07646 14.6342L9.1152 17.0877C9.1152 17.3072 9.28305 17.475 9.50257 17.475L11.0521 17.4492C11.4137 17.4492 11.6978 17.7333 11.7107 18.0819L11.8269 25.4423C11.8398 26.1654 11.2587 26.7594 10.5356 26.7594H7.56563C2.86533 26.7594 0.0632324 23.9573 0.0632324 19.2441V8.43599C0.0632324 3.73569 2.86533 0.933594 7.56563 0.933594H18.3867C23.087 0.933594 25.8891 3.73569 25.8891 8.43599V19.257Z" fill="#035B81"/>
</g>
</svg>
