<svg width="32" height="32" viewBox="0 0 32 32" fill="none" xmlns="http://www.w3.org/2000/svg">
<g id="Google">
<path id="Vector" d="M28.5385 13.3185H27.4984V13.2649H15.8768V18.4301H23.1745C22.1098 21.4368 19.249 23.5952 15.8768 23.5952C11.5981 23.5952 8.12903 20.1262 8.12903 15.8475C8.12903 11.5688 11.5981 8.09973 15.8768 8.09973C17.8518 8.09973 19.6486 8.84481 21.0168 10.0619L24.6692 6.40943C22.3629 4.26008 19.278 2.93457 15.8768 2.93457C8.74562 2.93457 2.96387 8.71633 2.96387 15.8475C2.96387 22.9786 8.74562 28.7604 15.8768 28.7604C23.0079 28.7604 28.7897 22.9786 28.7897 15.8475C28.7897 14.9817 28.7006 14.1365 28.5385 13.3185Z" fill="#FFC107"/>
<path id="Vector_2" d="M4.45288 9.83717L8.69542 12.9485C9.84338 10.1064 12.6235 8.09974 15.8769 8.09974C17.852 8.09974 19.6488 8.84481 21.0169 10.0619L24.6693 6.40944C22.3631 4.26008 19.2782 2.93457 15.8769 2.93457C10.9171 2.93457 6.61579 5.73474 4.45288 9.83717Z" fill="#FF3D00"/>
<path id="Vector_3" d="M15.8768 28.7603C19.2122 28.7603 22.2429 27.4839 24.5343 25.4081L20.5377 22.0262C19.2413 23.0083 17.6298 23.5951 15.8768 23.5951C12.5182 23.5951 9.66636 21.4535 8.592 18.4648L4.3811 21.7092C6.51819 25.8911 10.8582 28.7603 15.8768 28.7603Z" fill="#4CAF50"/>
<path id="Vector_4" d="M28.5387 13.3182H27.4986V13.2646H15.877V18.4298H23.1747C22.6633 19.8741 21.7342 21.1196 20.5359 22.0267C20.5366 22.0261 20.5372 22.0261 20.5379 22.0254L24.5344 25.4073C24.2516 25.6643 28.7899 22.3037 28.7899 15.8472C28.7899 14.9814 28.7008 14.1363 28.5387 13.3182Z" fill="#1976D2"/>
</g>
</svg>
