<svg width="212" height="181" viewBox="0 0 212 181" fill="none" xmlns="http://www.w3.org/2000/svg">
<g id="Logo">
<path id="Vector" d="M77.1073 48.5555C76.3235 46.0616 75.172 43.6353 73.6043 41.5364C72.7064 40.3354 71.7771 39.1697 70.7074 38.1172C69.6256 37.0515 68.4317 36.1132 67.2145 35.2071C64.9751 33.5395 62.5085 32.3223 59.9408 31.2486C57.6004 30.2698 55.1651 29.5415 52.6763 29.0547C46.6248 27.8698 40.5289 27.8749 34.4653 28.9637C28.7361 29.992 23.0614 32.196 18.2382 35.4687C12.8817 39.103 8.36858 43.9606 5.42517 49.7514C1.95652 56.5756 0.505018 64.219 0.621179 71.8462C0.74744 80.1128 2.67975 88.4602 7.06152 95.5389C10.6221 101.29 15.5806 106.026 21.2967 109.608C25.7523 112.401 30.7088 114.495 35.7552 115.955C38.7441 116.82 41.7865 117.423 44.8743 117.789C45.0026 117.804 45.1309 117.819 45.2591 117.832C43.7349 116.307 42.2107 114.783 40.6865 113.259C40.74 114.902 40.7935 116.545 40.8461 118.188C40.9733 122.114 41.1006 126.04 41.2279 129.966C41.3824 134.731 41.537 139.497 41.6915 144.264C41.8248 148.367 41.9582 152.47 42.0905 156.573C42.1551 158.57 42.1955 160.569 42.2844 162.565C42.2854 162.594 42.2864 162.622 42.2875 162.651C42.3258 163.847 42.7713 165.029 43.6268 165.885C44.4198 166.678 45.7208 167.276 46.8601 167.224C49.2712 167.116 51.5157 165.212 51.4328 162.651C51.3793 161.008 51.3258 159.366 51.2732 157.722C51.146 153.796 51.0187 149.871 50.8914 145.944C50.7369 141.179 50.5823 136.413 50.4278 131.647C50.2945 127.544 50.1611 123.441 50.0288 119.338C49.9642 117.341 49.9238 115.342 49.8349 113.346C49.8339 113.316 49.8328 113.288 49.8318 113.259C49.7945 112.116 49.3601 110.822 48.4925 110.026C47.5541 109.164 46.5278 108.8 45.2591 108.686C44.9844 108.661 44.7097 108.626 44.4359 108.588C44.841 108.643 45.246 108.697 45.6521 108.752C42.343 108.304 39.0723 107.485 35.9087 106.427C34.5542 105.974 33.2168 105.469 31.9007 104.915C32.2643 105.068 32.629 105.222 32.9926 105.375C30.1068 104.154 27.323 102.687 24.721 100.939C23.9189 100.399 23.1351 99.8338 22.3695 99.2429C22.6775 99.4813 22.9866 99.7197 23.2947 99.958C20.7048 97.948 18.3594 95.6379 16.3523 93.044C16.5907 93.352 16.8291 93.6611 17.0675 93.9692C15.1574 91.4854 13.5786 88.7662 12.3584 85.8804C12.512 86.244 12.6655 86.6087 12.819 86.9723C11.4221 83.638 10.5181 80.1239 10.0312 76.5441C10.0857 76.9492 10.1403 77.3542 10.1948 77.7603C9.61302 73.3755 9.59787 68.8927 10.1767 64.5058C10.1221 64.9109 10.0676 65.3159 10.013 65.722C10.4847 62.221 11.3655 58.7817 12.7362 55.5221C12.5827 55.8857 12.4292 56.2504 12.2756 56.614C13.4221 53.912 14.8958 51.3615 16.6867 49.0363C16.4483 49.3444 16.2099 49.6535 15.9715 49.9615C17.7311 47.6919 19.7755 45.6595 22.0462 43.902C21.7382 44.1404 21.4291 44.3788 21.121 44.6171C23.624 42.6919 26.3765 41.1141 29.2835 39.8849C28.9199 40.0384 28.5553 40.1919 28.1916 40.3455C31.5734 38.9253 35.1401 37.9788 38.7734 37.4869C38.3683 37.5414 37.9633 37.596 37.5572 37.6505C41.3612 37.1435 45.2258 37.1324 49.0308 37.6374C48.6258 37.5829 48.2207 37.5283 47.8147 37.4738C51.1389 37.9222 54.4116 38.7647 57.5065 40.0667C57.1429 39.9131 56.7782 39.7596 56.4146 39.6061C58.7499 40.596 60.9742 41.8465 62.9842 43.398C62.6762 43.1596 62.3671 42.9212 62.059 42.6828C63.6125 43.8899 65.0246 45.2697 66.2297 46.8262C65.9913 46.5181 65.7529 46.209 65.5145 45.901C66.5519 47.2515 67.4216 48.7211 68.0902 50.2878C67.9367 49.9242 67.7832 49.5595 67.6296 49.1959C67.8771 49.7817 68.0963 50.3787 68.2862 50.9858C68.6387 52.109 69.3589 53.1171 70.3882 53.7191C71.368 54.2928 72.8134 54.5352 73.9124 54.1797C76.2023 53.4403 77.875 50.9999 77.1073 48.5555Z" fill="#FFAC30"/>
<path id="Vector_2" d="M63.5237 37.0408C63.6671 36.5842 63.8176 36.1297 63.9792 35.6792C64.0661 35.4367 64.156 35.1953 64.2489 34.9559C64.3226 34.765 64.6802 33.9024 64.3489 34.6842C64.0196 35.461 64.3812 34.6165 64.4691 34.4206C64.56 34.2196 64.6519 34.0196 64.7469 33.8196C64.9681 33.3539 65.1994 32.8933 65.4408 32.4378C66.3873 30.654 67.5317 29.0388 68.6832 27.3873C67.7852 28.6762 68.7408 27.3247 69.0165 26.9914C69.3529 26.5853 69.6973 26.1853 70.0478 25.7914C70.7307 25.0267 71.4408 24.2863 72.1741 23.5702C72.9428 22.8197 73.7377 22.0965 74.5559 21.4005C74.9387 21.0742 75.3256 20.7551 75.7175 20.4409C75.8619 20.3248 76.5316 19.8036 75.8943 20.2945C75.2236 20.8116 76.1256 20.1217 76.267 20.0167C79.6781 17.4783 83.3912 15.349 87.275 13.6228C87.3507 13.5895 88.0143 13.2632 88.0376 13.2905C88.0457 13.3006 87.0871 13.6864 87.4921 13.5208C87.6022 13.4763 87.7113 13.4299 87.8214 13.3844C88.3345 13.1743 88.8497 12.9713 89.3679 12.7743C90.3648 12.3965 91.3719 12.045 92.387 11.7188C94.4002 11.0733 96.4466 10.5319 98.5163 10.1016C99.5365 9.8895 100.563 9.70465 101.593 9.54809C101.812 9.51476 102.759 9.38446 101.895 9.49961C101.038 9.61476 101.885 9.50365 102.082 9.4794C102.609 9.41577 103.137 9.36122 103.667 9.31375C105.703 9.13092 107.752 9.06628 109.795 9.139C110.99 9.18143 112.185 9.25516 113.377 9.35617C113.94 9.40364 114.503 9.45718 115.065 9.5188C115.32 9.54607 115.575 9.57536 115.829 9.60567C115.956 9.62082 116.082 9.63597 116.208 9.65213C117.013 9.75314 116.118 9.55617 115.869 9.60465C116.299 9.52183 117.035 9.77738 117.465 9.84809C118.024 9.94102 118.583 10.041 119.139 10.1501C120.18 10.3531 121.215 10.5844 122.241 10.8461C124.183 11.341 126.096 11.9471 127.962 12.6763C128.162 12.7541 128.361 12.8339 128.559 12.9147C128.685 12.9662 128.832 13.0137 128.953 13.0774C129.049 13.1279 127.908 12.6208 128.349 12.8238C128.795 13.0289 129.245 13.2208 129.689 13.4299C130.527 13.8268 131.352 14.2501 132.162 14.7016C133.735 15.5773 135.251 16.5571 136.695 17.6339C136.742 17.6692 137.009 17.844 137.01 17.8712C137.011 17.9117 136.163 17.2066 136.473 17.4561C136.626 17.5793 136.782 17.6985 136.935 17.8218C137.291 18.1076 137.642 18.4005 137.988 18.6985C138.652 19.2712 139.299 19.8652 139.926 20.4793C141.204 21.7308 142.401 23.0631 143.518 24.4591C143.64 24.6126 143.76 24.7671 143.883 24.9207C144.13 25.2298 143.429 24.3833 143.467 24.3843C143.494 24.3853 143.712 24.7075 143.705 24.6974C143.98 25.0651 144.252 25.4378 144.518 25.8126C145.035 26.5429 145.532 27.2863 146.011 28.0419C146.988 29.5822 147.888 31.1701 148.722 32.7923C149.148 33.6216 149.557 34.46 149.951 35.3064C150.143 35.7186 150.331 36.1327 150.515 36.5478C150.601 36.7408 150.685 36.9337 150.769 37.1276C150.844 37.2983 151.262 38.2842 150.914 37.4589C150.568 36.6418 150.942 37.5327 151.01 37.7004C151.091 37.8983 151.171 38.0973 151.251 38.2963C151.438 38.763 151.621 39.2317 151.801 39.7013C152.71 42.0751 154.82 43.5114 157.426 42.8953C158.545 42.6306 159.672 42.4044 160.809 42.2286C160.999 42.1993 161.901 42.073 161.074 42.1852C160.211 42.3023 161.291 42.1639 161.463 42.1458C162 42.0872 162.538 42.0397 163.076 42.0023C165.273 41.8498 167.482 41.8741 169.675 42.0741C170.19 42.1215 170.724 42.1508 171.232 42.2458C171.319 42.2619 170.108 42.0831 170.611 42.164C170.729 42.1831 170.848 42.1983 170.966 42.2165C171.281 42.265 171.596 42.3165 171.911 42.373C172.926 42.5528 173.935 42.771 174.934 43.0266C175.963 43.2892 176.983 43.5922 177.989 43.9336C178.471 44.0973 178.951 44.269 179.427 44.4498C179.646 44.5326 179.864 44.6185 180.082 44.7053C180.191 44.7488 180.298 44.7942 180.407 44.8377C180.895 45.0276 179.272 44.3437 180.07 44.6942C181.954 45.5215 183.782 46.4619 185.533 47.5447C186.417 48.0922 187.282 48.672 188.124 49.2841C188.31 49.4194 188.494 49.5578 188.68 49.6952C189.302 50.1558 187.881 49.0578 188.485 49.5427C188.904 49.879 189.322 50.2144 189.731 50.5629C191.3 51.9002 192.771 53.3537 194.121 54.9113C194.42 55.2568 194.714 55.6063 195.001 55.9608C195.108 56.0921 195.729 56.886 195.209 56.2143C194.706 55.5638 195.283 56.3194 195.401 56.479C196.009 57.3042 196.585 58.1537 197.126 59.0234C197.668 59.8931 198.175 60.785 198.645 61.6951C198.854 62.1001 199.056 62.5082 199.25 62.9203C199.363 63.1607 199.474 63.4031 199.582 63.6456C199.628 63.7496 199.674 63.8547 199.72 63.9587C199.971 64.5254 199.57 63.5769 199.526 63.4961C199.999 64.3759 200.283 65.4466 200.584 66.394C200.898 67.3799 201.17 68.3789 201.398 69.3879C201.62 70.3698 201.784 71.3576 201.94 72.3505C201.681 70.7071 201.934 72.4132 201.974 72.8546C202.022 73.3869 202.059 73.9202 202.083 74.4535C202.176 76.4586 202.1 78.4717 201.864 80.4656C201.847 80.6111 201.837 80.7697 201.807 80.9151C201.787 81.0171 201.982 79.7626 201.892 80.2596C201.853 80.4818 201.824 80.707 201.788 80.9303C201.702 81.4505 201.605 81.9696 201.497 82.4858C201.29 83.4818 201.043 84.4686 200.757 85.4444C200.481 86.3848 200.17 87.315 199.825 88.2322C199.732 88.4797 199.637 88.7262 199.539 88.9706C199.468 89.1484 199.145 89.9221 199.467 89.1575C199.791 88.3878 199.423 89.2484 199.336 89.4423C199.227 89.6837 199.116 89.9241 199.003 90.1635C198.126 92.016 197.108 93.8009 195.965 95.5008C195.709 95.8806 195.448 96.2554 195.18 96.6261C195.023 96.8422 194.864 97.0564 194.704 97.2715C194.283 97.8412 195.382 96.4129 194.789 97.1624C194.147 97.9735 193.474 98.7614 192.774 99.523C191.388 101.03 189.891 102.434 188.3 103.722C188.089 103.893 187.881 104.07 187.661 104.23C187.597 104.275 188.516 103.583 188.123 103.87C188.029 103.939 187.936 104.011 187.842 104.081C187.402 104.407 186.957 104.724 186.505 105.032C185.63 105.63 184.731 106.196 183.811 106.725C182.919 107.239 182.007 107.721 181.078 108.167C180.61 108.393 180.138 108.605 179.663 108.816C178.961 109.128 180.743 108.375 179.757 108.774C179.496 108.881 179.234 108.984 178.97 109.084C176.946 109.855 174.861 110.467 172.741 110.915C172.211 111.027 171.678 111.129 171.144 111.22C170.854 111.269 170.564 111.316 170.273 111.359C169.249 111.513 171.139 111.252 170.359 111.349C169.157 111.5 167.993 111.743 167.126 112.689C166.26 113.631 165.912 114.651 165.786 115.922C164.262 131.373 162.738 146.824 161.214 162.275C160.779 166.673 160.346 171.072 159.912 175.47C162.206 174.154 164.498 172.837 166.792 171.521C156.176 165.061 144.858 159.742 133.136 155.616C118.596 150.499 103.376 147.384 88.0113 146.191C81.3831 145.676 74.7286 145.549 68.0852 145.796C65.6974 145.885 63.3984 147.836 63.5126 150.369C63.6196 152.77 65.5247 155.038 68.0852 154.942C73.871 154.726 79.6659 154.794 85.4447 155.157C88.8053 155.368 92.1588 155.676 95.5011 156.083C95.8921 156.131 96.2819 156.179 96.6718 156.23C96.7829 156.244 97.7637 156.389 96.9496 156.264C96.1325 156.139 97.1234 156.288 97.2324 156.303C98.1355 156.429 99.0365 156.562 99.9375 156.701C101.794 156.99 103.646 157.308 105.491 157.657C113.169 159.108 120.746 161.082 128.156 163.56C131.466 164.667 134.742 165.874 137.98 167.18C138.748 167.49 139.508 167.83 140.281 168.127C140.212 168.101 139.239 167.683 139.941 167.985C140.107 168.057 140.273 168.126 140.439 168.198C140.85 168.375 141.261 168.553 141.671 168.733C143.105 169.363 144.531 170.011 145.947 170.679C151.507 173.301 156.924 176.221 162.175 179.417C163.565 180.263 165.399 180.232 166.791 179.417C168.287 178.541 168.893 177.119 169.056 175.469C170.58 160.017 172.104 144.567 173.629 129.116C174.063 124.718 174.496 120.319 174.931 115.921C173.406 117.445 171.882 118.969 170.358 120.494C175.623 119.834 180.559 118.479 185.369 116.217C189.61 114.221 193.531 111.475 196.958 108.283C203.576 102.117 208.465 93.7897 210.314 84.913C212.283 75.4697 210.993 65.7637 206.59 57.1769C202.434 49.073 195.482 42.2892 187.42 38.0943C183.249 35.9236 178.742 34.3044 174.101 33.5095C168.87 32.6125 163.74 32.5923 158.497 33.3863C157.318 33.565 156.148 33.7974 154.988 34.0721C156.863 35.1367 158.739 36.2014 160.614 37.266C157.651 29.5338 153.846 22.1692 148.273 15.9763C142.717 9.80061 135.495 5.39055 127.607 2.86533C123.001 1.39059 118.182 0.610798 113.371 0.204742C108.624 -0.196265 103.978 0.00272556 99.2688 0.705749C90.282 2.04816 81.3932 5.50469 73.8448 10.5602C65.9499 15.847 59.4227 22.8682 55.752 31.7004C55.3561 32.6519 55.0046 33.6196 54.6965 34.6034C53.9803 36.8862 55.5409 39.6933 57.8904 40.2286C60.3863 40.8013 62.757 39.4852 63.5237 37.0408Z" fill="#FFAC30"/>
<path id="Vector_3" d="M59.9378 89.5299C64.0964 95.2541 67.5943 101.439 70.3519 107.955C70.1983 107.591 70.0448 107.227 69.8913 106.863C72.4741 113.002 74.3963 119.41 75.6084 125.96C75.8922 127.492 76.1356 129.032 76.3437 130.576C76.2892 130.171 76.2346 129.766 76.1801 129.36C76.4154 131.131 76.6013 132.906 76.7377 134.687C76.8316 135.914 77.1841 137.027 78.077 137.92C78.87 138.713 80.171 139.311 81.3104 139.26C82.4932 139.207 83.7194 138.818 84.5437 137.92C85.3285 137.066 85.975 135.888 85.883 134.687C85.3921 128.272 84.3346 121.878 82.6184 115.675C80.5154 108.074 77.4508 100.687 73.569 93.8228C71.8296 90.746 69.9115 87.7733 67.8347 84.9138C67.1145 83.9229 66.3246 83.1491 65.1014 82.8118C64.0065 82.5108 62.5489 82.6461 61.5772 83.2724C60.6004 83.9017 59.7409 84.839 59.4752 86.0057C59.2186 87.137 59.2257 88.5501 59.9378 89.5299Z" fill="#FFAC30"/>
<path id="Vector_4" d="M145.131 84.9146C141.164 90.3741 137.788 96.2559 135.1 102.446C132.059 109.443 129.748 116.695 128.415 124.213C127.801 127.678 127.351 131.179 127.083 134.687C126.997 135.802 127.654 137.152 128.422 137.92C129.215 138.713 130.516 139.311 131.655 139.26C132.838 139.207 134.064 138.818 134.889 137.92C135.744 136.988 136.131 135.952 136.228 134.687C136.364 132.906 136.55 131.13 136.785 129.36C136.731 129.765 136.676 130.17 136.622 130.576C137.443 124.465 138.861 118.437 140.873 112.607C141.543 110.668 142.278 108.753 143.074 106.863C142.921 107.226 142.767 107.591 142.614 107.955C145.371 101.439 148.869 95.2538 153.028 89.5297C153.685 88.6246 153.773 87.0388 153.488 86.0065C153.196 84.9459 152.376 83.7964 151.386 83.2732C150.325 82.7126 149.039 82.4317 147.862 82.8125C147.498 82.9661 147.134 83.1196 146.77 83.2732C146.084 83.6802 145.537 84.2267 145.131 84.9146Z" fill="#FFAC30"/>
<path id="Vector_5" d="M101.972 80.0123C101.972 81.7456 101.972 83.4789 101.972 85.2123C101.972 89.3738 101.972 93.5344 101.972 97.696C101.972 102.71 101.972 107.724 101.972 112.738C101.972 117.073 101.972 121.408 101.972 125.742C101.972 127.853 101.944 129.966 101.972 132.077C101.972 132.109 101.972 132.139 101.972 132.17C101.972 133.343 102.482 134.574 103.311 135.404C104.104 136.197 105.405 136.795 106.544 136.743C107.727 136.691 108.954 136.302 109.778 135.404C110.599 134.509 111.117 133.409 111.117 132.17C111.117 130.437 111.117 128.704 111.117 126.97C111.117 122.809 111.117 118.648 111.117 114.487C111.117 109.473 111.117 104.459 111.117 99.4444C111.117 95.1101 111.117 90.7748 111.117 86.4405C111.117 84.3294 111.145 82.2163 111.117 80.1052C111.117 80.0739 111.117 80.0436 111.117 80.0123C111.117 78.8396 110.607 77.6083 109.778 76.779C108.985 75.9861 107.684 75.3881 106.544 75.4396C105.362 75.4921 104.135 75.881 103.311 76.779C102.489 77.6729 101.972 78.7729 101.972 80.0123Z" fill="#FFAC30"/>
</g>
</svg>
