<svg width="26" height="27" viewBox="0 0 26 27" fill="none" xmlns="http://www.w3.org/2000/svg">
<g id="Twitter" clip-path="url(#clip0_3278_9914)">
<path id="Vector" fill-rule="evenodd" clip-rule="evenodd" d="M19.6454 0.933594H6.49764C3.01098 0.933594 0.158691 3.78614 0.158691 7.27263V20.4204C0.158691 23.907 3.01098 26.7594 6.49764 26.7594H19.6454C23.1318 26.7594 25.9844 23.907 25.9844 20.4204V7.27263C25.9844 3.78614 23.1319 0.933594 19.6454 0.933594Z" fill="#1599EB"/>
<path id="Vector_2" fill-rule="evenodd" clip-rule="evenodd" d="M5.81226 18.1798C7.34717 18.3608 9.26525 18.0421 10.4842 17.087C9.21421 17.0633 8.14304 16.2245 7.77381 15.0716C8.20881 15.1551 8.65637 15.1384 9.08404 15.0219C7.77244 14.7591 6.68508 13.5106 6.75679 12.1403C7.1478 12.3579 7.59501 12.4887 8.0709 12.5034C7.29208 11.9834 6.77969 11.0949 6.77969 10.0883C6.77969 9.55684 6.92337 9.05866 7.17267 8.62978C8.60377 10.3854 10.7421 11.5401 13.1532 11.6613C12.4734 8.75891 16.0974 6.88447 18.0978 9.01544C18.7588 8.88511 19.3794 8.64338 19.9402 8.31126C19.7233 8.98859 19.2634 9.55693 18.6643 9.91608C19.2512 9.84592 19.8105 9.69027 20.3305 9.4593C19.9421 10.0412 19.4495 10.5522 18.8823 10.937C19.0274 15.6773 15.2268 19.5893 10.4857 19.5934C8.75545 19.5947 7.14788 19.074 5.81226 18.1798Z" fill="white"/>
</g>
<defs>
<clipPath id="clip0_3278_9914">
<rect width="25.8258" height="25.8258" fill="white" transform="translate(0.162354 0.933594)"/>
</clipPath>
</defs>
</svg>
