<svg width="47" height="43" viewBox="0 0 47 43" fill="none" xmlns="http://www.w3.org/2000/svg">
<g id="Group">
<path id="Vector" d="M27.6749 1.15887C38.4659 2.82257 46.8339 12.906 44.1362 23.9877C41.8579 33.3478 32.3254 39.7928 23.1111 40.6102C11.6041 41.6229 2.23796 33.1091 2.4911 21.5645C2.7804 8.22598 16.0087 2.51878 27.4579 1.05762C27.5158 1.10825 27.5881 1.14441 27.6749 1.15887ZM39.8762 21.239C41.5903 12.3129 36.5637 3.9076 27.0022 3.68337C26.8214 3.67613 26.684 3.74123 26.5828 3.83526C17.3251 3.50976 9.73089 11.6112 7.7564 20.1467C5.61556 29.3838 11.3582 36.5739 20.558 37.4853C30.5462 38.4763 38.097 30.534 39.8762 21.239Z" fill="#F6F6F6"/>
<path id="Vector_2" d="M27.8195 0.0815105C39.3048 0.703588 48.9386 13.0801 45.7057 24.4149C42.8343 34.4694 32.7811 42.0501 22.3228 42.2381C10.2878 42.4624 -0.409164 33.4061 0.834836 20.733C2.14393 7.3656 14.8226 -0.135486 27.4217 0.269588C27.5085 0.153852 27.6459 0.074277 27.8195 0.0815105ZM44.1362 23.9881C46.8339 12.9064 38.4659 2.82299 27.6749 1.15929C27.5881 1.14482 27.5158 1.10867 27.4579 1.05803C16.0088 2.51919 2.7804 8.2264 2.4911 21.5649C2.23796 33.1095 11.6041 41.6233 23.1111 40.6106C32.3254 39.7932 41.8579 33.3482 44.1362 23.9881Z" fill="#1D1D1B"/>
<path id="Vector_3" d="M27.0022 3.68414C36.5637 3.90838 41.5903 12.3137 39.8762 21.2397C38.097 30.5347 30.5462 38.4771 20.558 37.4861C11.3582 36.5747 5.61555 29.3846 7.75639 20.1475C9.73087 11.612 17.3251 3.51053 26.5827 3.83604C26.684 3.742 26.8214 3.67691 27.0022 3.68414ZM38.3501 22.0427C40.245 13.3698 36.2671 5.7963 27.0022 4.91382C26.8865 4.89935 26.7852 4.85595 26.7057 4.79808C18.5474 6.0784 11.5607 11.084 9.35478 19.4024C7.11991 27.815 11.416 35.562 20.558 36.1841C29.4179 36.7845 36.4841 30.5854 38.3501 22.0427Z" fill="#1D1D1B"/>
<path id="Vector_4" d="M30.3436 7.70558C28.5644 6.25888 26.4742 7.11965 24.8541 8.34934C24.8541 8.37828 24.4346 8.57359 24.4274 8.60976C24.4057 8.69656 24.8035 8.61699 24.7745 8.69656C24.9554 8.80506 25.1289 8.91355 25.2808 9.05099C25.3387 8.99312 25.3821 9.05099 25.4906 9.05099C25.5267 9.05099 25.6063 8.94249 25.6424 8.94249C25.722 8.90632 25.8016 8.90632 25.8667 8.93525C25.9896 8.92802 26.156 9.34757 26.2283 8.92079C26.3151 8.76166 26.4814 8.66039 26.7129 8.7472C27.7905 9.15227 28.6006 10.1649 28.955 11.2861C29.0996 11.2355 29.266 11.2717 29.36 11.4525C29.7795 12.3205 30.4304 13.6659 29.7867 14.5991C29.2804 15.3369 28.3619 15.402 27.5157 15.3947C27.5663 16.1543 27.5301 16.9138 27.4072 17.6443C29.7216 18.0711 31.2621 16.2989 31.1175 13.6515C30.9584 10.8811 29.36 8.24809 26.2644 8.6821C25.8811 8.73273 25.7075 8.19022 26.0981 8.08895C33.3234 6.12145 33.7212 20.2195 27.3493 18.006C27.2698 18.3822 27.183 18.7438 27.06 19.1055C28.8392 19.8071 31.1898 20.4148 32.2892 18.3894C33.186 16.7474 33.1426 14.7148 32.8244 12.9281C32.4989 11.0836 31.848 8.93526 30.3436 7.70558Z" fill="#FCDA7A"/>
<path id="Vector_5" d="M27.0022 4.91359C26.8865 4.89912 26.7852 4.85572 26.7057 4.79785C18.5473 6.07817 11.5607 11.0837 9.35476 19.4022C7.1199 27.8147 11.416 35.5618 20.558 36.1839C29.4179 36.7842 36.4841 30.5852 38.3501 22.0424C40.245 13.3695 36.2671 5.79607 27.0022 4.91359ZM34.0757 30.2452C32.4628 31.9668 30.3943 32.0391 28.3547 31.3085C27.5374 33.7751 25.1 35.229 22.2143 34.9469C21.3391 34.8601 20.03 34.5274 19.0175 33.9415C14.0198 34.4044 7.3441 27.2939 10.4758 23.0985C8.9208 19.2793 11.3871 14.6788 15.0106 12.9644C15.1264 12.9066 15.2348 12.921 15.3289 12.9717C15.3867 10.6787 16.8839 8.85582 19.1404 8.25545C20.558 7.87207 22.5687 7.76357 24.1237 8.37118C24.1381 8.33502 24.3479 8.46522 24.3551 8.42182C24.4202 8.16142 24.4708 7.95165 24.6589 8.03845C26.2862 6.40369 28.6151 5.26804 30.7053 6.86663C31.4285 7.42361 32.0289 8.12526 32.5062 8.90648C32.5858 8.84137 32.687 8.80519 32.8027 8.8486C34.553 9.57917 36.0791 11.5684 35.9417 13.5648C37.9668 16.545 38.0753 20.7983 35.8187 23.4313C36.2527 25.6736 35.5149 28.7045 34.0757 30.2452Z" fill="#F6F6F6"/>
<path id="Vector_6" d="M28.2029 12.4509C28.145 11.1562 27.3711 10.3388 26.402 9.62266C26.3803 9.62266 26.185 9.20312 26.1633 9.20312C25.9391 9.21036 25.8306 9.34778 25.6787 9.66606C25.6498 9.82519 25.5413 9.95539 25.3677 9.93369C24.1309 11.2936 22.6483 14.498 25.1652 14.5197C26.4671 14.5269 28.2752 14.1002 28.2029 12.4509Z" fill="#683C11"/>
<path id="Vector_7" d="M35.9417 13.5717C37.9668 16.5519 38.0753 20.8052 35.8187 23.4382C36.2527 25.6733 35.5149 28.7041 34.0756 30.2449C32.4628 31.9664 30.3943 32.0388 28.3547 31.3082C27.5374 33.7748 25.1 35.2287 22.2142 34.9466C21.3391 34.8598 20.03 34.5271 19.0175 33.9411C14.0198 34.4041 7.34409 27.2936 10.4758 23.0982C8.92079 19.2789 11.3871 14.6784 15.0106 12.9641C15.1263 12.9062 15.2348 12.9207 15.3289 12.9713C15.3867 10.6783 16.8839 8.85548 19.1404 8.25511C20.9775 7.76323 23.8271 7.69091 25.3532 9.10143C25.4472 9.04356 25.5412 8.99293 25.6425 8.94229C25.9679 8.79039 26.2428 9.24609 25.9246 9.43416C25.8522 9.47757 25.7727 9.54268 25.6859 9.60778C25.6787 9.78862 25.5557 9.95498 25.3604 9.93327C24.1237 11.2932 22.641 14.4976 25.1579 14.5193C26.467 14.5265 28.2751 14.0998 28.2028 12.4505C28.145 11.1413 27.3566 10.3166 26.3657 9.5933C25.9679 9.30396 26.1922 8.54445 26.7201 8.73976C27.7978 9.14483 28.6078 10.1575 28.9622 11.2787C29.1069 11.2281 29.2732 11.2642 29.3673 11.4451C29.7868 12.3131 30.4377 13.6585 29.794 14.5916C29.2877 15.3294 28.3692 15.3945 27.5229 15.3873C27.5736 16.1468 27.5374 16.9063 27.4145 17.6369C29.7289 18.0637 31.2694 16.2915 31.1248 13.644C30.9657 10.8736 29.3673 8.24065 26.2717 8.67466C25.8884 8.72529 25.7148 8.18278 26.1054 8.08151C33.3307 6.11401 33.7285 20.212 27.3566 17.9986C27.2771 18.3747 27.1902 18.7364 27.0673 19.0981C28.8465 19.7997 31.1971 20.4073 32.2964 18.382C33.1933 16.74 33.1499 14.7074 32.8316 12.9207C32.4989 11.0834 31.848 8.93507 30.3436 7.70538C28.4993 6.20082 26.3151 7.18456 24.6733 8.48658C24.5142 8.61678 24.2972 8.41425 24.4419 8.26235C26.0765 6.51185 28.521 5.2026 30.7053 6.87353C31.4285 7.43051 32.0288 8.13214 32.5062 8.91335C32.5858 8.84825 32.687 8.8121 32.8027 8.8555C34.553 9.58608 36.0791 11.5753 35.9417 13.5717ZM35.5872 22.6135C37.4533 19.6116 36.3612 15.3005 33.8659 12.6024C33.8876 12.7471 33.9165 12.899 33.9382 13.0437C34.1841 15.0039 34.1408 17.6441 32.7304 19.2427C32.7883 19.25 32.8389 19.2789 32.8533 19.344C32.998 20.1108 32.4411 21.0005 32.0505 21.6804C32.4266 22.071 32.7232 22.5267 32.875 22.9969C34.5313 20.8413 34.3071 18.7292 34.054 16.1179C34.025 15.8286 34.459 15.7273 34.5892 15.9732C35.8983 18.4181 34.77 21.5358 32.9835 23.4092C33.0848 23.9373 33.0703 24.4725 32.9474 24.9789C32.9618 24.95 32.9835 24.9282 33.0125 24.9138C33.2801 24.7836 33.5115 24.6317 33.743 24.4798C33.7647 24.4581 33.7863 24.4508 33.808 24.4364C34.119 24.2266 34.4083 24.0024 34.6687 23.7564C34.6832 23.3875 34.6977 23.0186 34.7411 22.6425C34.7917 22.1651 35.3848 22.0855 35.5583 22.534C35.5656 22.5557 35.5728 22.5846 35.5872 22.6135ZM34.9363 12.3637C34.8712 12.0672 34.7772 11.7706 34.6253 11.4885C34.2203 10.7145 33.6706 10.1431 32.9474 9.71628C33.2584 10.3528 33.5043 11.0328 33.6779 11.7127C33.8008 11.597 33.9816 11.5463 34.148 11.6765C34.43 11.8863 34.6904 12.1178 34.9363 12.3637ZM33.8659 28.7692C34.5819 27.3081 34.6036 25.9337 34.6398 24.487C34.5168 24.5738 34.3866 24.6461 34.2565 24.7257C34.7989 25.9916 34.1118 28.1254 33.1282 28.9718C31.8914 30.0495 30.4377 29.7819 29.1286 29.0007C28.9695 29.0441 28.7959 29.0803 28.6295 29.102C28.6295 29.1237 28.644 29.1453 28.644 29.167C28.6657 29.7096 28.6151 30.2304 28.5138 30.715C30.604 31.2792 32.7955 30.961 33.8659 28.7692ZM33.5043 26.3966C33.5622 25.9699 33.526 25.5286 33.5621 25.1018C33.432 25.1669 33.309 25.2321 33.1716 25.2899C33.0414 25.3406 32.9329 25.2176 32.9185 25.1018C32.7304 25.7312 32.3615 26.2954 31.7974 26.6787C31.8046 26.7438 31.7974 26.8089 31.7612 26.8813C31.1754 27.8795 30.4304 28.5016 29.5987 28.8416C30.7921 29.3262 32.1807 29.3045 32.9112 28.0169C33.2005 27.5106 33.4175 26.9753 33.5043 26.3966ZM32.5496 19.4525C32.5279 19.4814 32.5062 19.5104 32.4773 19.5393C30.8065 21.08 28.6657 20.4869 26.9805 19.3368C26.8359 19.7419 26.6551 20.1325 26.4525 20.5086C26.6044 20.3639 26.7708 20.2193 26.9444 20.0891C27.0601 19.995 27.1903 20.1831 27.0962 20.2844C26.1994 21.2247 25.5412 22.6859 25.8739 24.0096C25.9679 24.393 26.1126 24.7185 26.2789 24.9933C26.2789 24.9861 26.2789 24.9861 26.2789 24.9789C25.722 23.2139 26.6768 21.5864 28.2824 20.892C28.3258 20.7835 28.4053 20.6822 28.5283 20.6316C29.6783 20.1614 31.0308 20.6822 31.9421 21.5719C32.1156 21.1885 32.2892 20.7979 32.3905 20.3929C32.4628 20.0818 32.4845 19.7636 32.5496 19.4525ZM31.1899 25.8903C32.1229 25.2537 32.3254 23.9228 31.7685 22.9607C30.9946 21.6153 29.8374 21.76 28.5283 21.3911C28.5283 21.3911 28.521 21.3839 28.5138 21.3839C27.4434 22.1578 26.561 23.6986 27.3277 24.9717C28.0437 26.1579 29.9965 26.7077 31.1899 25.8903ZM30.51 27.1561C30.3581 27.1778 30.2135 27.1996 30.0688 27.214C27.2771 28.7475 23.9067 27.2285 22.8218 24.3062C22.7712 24.1832 22.9664 24.1036 23.0243 24.2194C23.9935 25.8903 25.3676 26.7511 26.9154 26.9247C25.9246 26.2592 25.2519 25.0801 25.0856 23.9228C24.9988 23.2718 25.0928 22.6786 25.3098 22.1289C24.2321 23.3224 22.7784 24.1615 21.0353 24.4508C21.0715 24.4725 21.1077 24.5015 21.1366 24.5376C22.236 26.1073 23.885 27.4455 25.7437 27.9952C27.6604 28.5594 29.0997 28.2484 30.51 27.1561ZM29.3094 14.1576C29.4106 13.7236 29.3166 13.2462 29.1503 12.7977C29.1503 12.8122 29.1503 12.8267 29.1503 12.8339C29.0418 13.89 28.3692 14.6133 27.494 15.0329C27.5013 15.0835 27.5013 15.1341 27.5085 15.1848C28.2317 15.1052 29.1286 14.8665 29.3094 14.1576ZM27.8122 29.167C27.8122 29.1598 27.8122 29.1598 27.8122 29.1598C27.5012 29.1526 27.183 29.1164 26.8648 29.0586C26.9371 30.187 26.3006 31.3516 25.44 32.0315C24.6733 32.6391 23.6969 32.8778 22.7278 32.9285C22.1853 33.0659 21.5922 32.9502 20.963 32.5595C20.341 32.1689 19.6395 31.6337 19.4153 30.9031C18.9958 31.0912 18.5546 31.2286 18.1134 31.3226C17.9687 33.4203 21.1655 34.216 22.829 34.1726C25.2519 34.1075 26.966 32.9574 27.5663 30.932C27.5085 30.8163 27.5519 30.6499 27.6604 30.5631C27.7616 30.1364 27.8122 29.6662 27.8122 29.167ZM26.3223 17.2897C26.4236 16.6604 26.4887 16.0094 26.5104 15.3584C26.062 15.4524 25.5991 15.4814 25.1579 15.438C25.0567 15.4307 24.9771 15.409 24.8903 15.3946C25.0277 17.3621 23.4293 19.7491 22.3734 21.2536C21.7514 22.1506 20.5074 24.2121 19.1621 23.959C19.5961 24.1977 20.0156 24.4725 20.3844 24.7908C21.3753 25.6516 21.9394 26.592 22.3372 27.7131C23.1473 27.7204 23.9356 28.0025 24.3189 28.639C24.5142 28.9573 24.6155 29.3262 24.6444 29.7023C24.6589 29.6806 24.6733 29.6517 24.6878 29.63C24.8397 29.29 24.9482 28.856 25.223 28.6101C25.2447 28.5956 25.2664 28.5884 25.2881 28.5811C23.3787 27.7927 21.6067 26.3171 20.6448 24.827C20.5652 24.6968 20.6014 24.5738 20.6809 24.5015C20.6159 24.5087 20.5508 24.5232 20.4857 24.5304C20.1964 24.5521 20.1313 24.0747 20.4133 24.0313C24.0079 23.4382 25.7148 20.6605 26.2862 17.5067C26.2356 17.4778 26.1922 17.4561 26.1415 17.4272C26.033 17.3621 26.1271 17.2101 26.2356 17.2608C26.2645 17.2752 26.2934 17.2825 26.3223 17.2897ZM25.2519 31.5686C26.0114 30.7656 26.0837 29.9193 26.3151 28.9356C26.062 28.8705 25.8161 28.7837 25.5702 28.6896C25.5774 28.7113 25.5846 28.7331 25.5846 28.7548C25.5485 29.196 25.2158 29.6083 24.9771 29.97C24.8614 30.1436 24.7457 30.3172 24.6155 30.4835C24.5287 31.0044 24.3334 31.5035 24.0586 31.9085C23.885 32.1617 23.6969 32.357 23.4944 32.5234C24.1526 32.3498 24.7746 32.0604 25.2519 31.5686ZM24.073 10.3383C24.2466 10.0996 24.4347 9.86818 24.6372 9.67288C23.0388 9.06527 21.5923 8.50828 19.7624 9.00015C17.6216 9.57883 16.1317 10.9966 15.8713 13.2679C15.8424 13.4994 15.6037 13.5789 15.4518 13.4994C15.4229 13.5211 15.4012 13.55 15.3578 13.5717C12.1393 15.2354 10.2733 18.9245 10.9387 22.4327C10.9748 20.0384 11.9368 17.7092 14.0125 16.2843C13.9691 15.7924 14.0342 15.2933 14.2657 14.8593C14.8153 13.7815 15.893 13.2607 17.014 13.1956C16.0666 9.23164 21.491 8.85549 24.073 10.3383ZM24.2466 15.2209C23.8922 15.0835 23.6318 14.881 23.4293 14.6423C21.9611 17.8756 20.3844 21.109 17.0719 22.7799C17.043 22.8956 17.014 23.0186 16.9923 23.1343C17.6939 23.279 18.381 23.5394 19.0247 23.8794C18.9668 23.8215 18.9234 23.742 18.9307 23.6624C18.9451 23.4743 18.8149 23.2573 18.8005 23.0475C18.7932 22.9897 18.8873 22.9825 18.9017 23.0331C19.0898 23.6552 19.5888 23.3224 20.0372 22.8884C20.746 22.2157 21.3463 21.42 21.8816 20.6026C22.9592 18.9462 23.8994 17.1812 24.2466 15.2209ZM23.4149 31.0333C23.6463 30.5125 23.8633 29.5794 23.4004 29.1092C23.1762 28.8777 22.923 28.7837 22.641 28.7692C22.6337 28.8922 22.4457 28.9356 22.3951 28.7909C22.3878 28.7837 22.3878 28.7765 22.3806 28.7692C21.7441 28.8199 21.0498 29.1671 20.4857 29.1526C20.4567 29.1526 20.435 29.1454 20.4133 29.1454C20.2325 29.5215 20.124 29.9121 20.1674 30.2666C20.2398 30.3172 20.2615 30.404 20.2036 30.4763C20.4423 31.1924 21.3174 31.8507 22.019 32.046C22.6844 32.234 23.1762 31.5758 23.4149 31.0333ZM22.641 14.7001C22.7784 14.4397 22.9158 14.1793 23.0605 13.9262C22.8218 13.0654 23.0966 11.9731 23.6318 11.0111C21.2957 10.172 17.1153 9.60778 17.4046 13.1956C17.6288 13.2028 17.8458 13.2173 18.0628 13.2607C18.0628 13.1666 18.1134 13.0871 18.1857 13.0292C18.1061 12.9135 18.0917 12.7616 18.2219 12.6314C19.4514 11.3944 21.0787 10.7868 22.6844 11.7633C22.9954 11.9514 22.7929 12.4795 22.4312 12.3565C21.7514 12.125 21.057 11.8212 20.3193 12.0527C19.8709 12.1973 19.4876 12.4216 19.126 12.7037C19.2417 12.6097 19.4586 12.6603 19.4731 12.8556C19.4948 13.1666 19.5454 13.4777 19.625 13.7815C19.936 14.1866 20.1385 14.664 20.2325 15.1703C20.247 15.1848 20.2542 15.2065 20.2687 15.2282C20.6592 15.7562 21.2379 16.06 21.679 16.494C21.8743 16.1468 22.0551 15.7996 22.2432 15.4524C21.7297 14.8737 21.4042 14.107 21.0353 13.427C20.9413 13.2534 20.8545 13.0798 20.7822 12.899C20.7388 12.7977 20.8039 12.6748 20.775 12.6024C20.7533 12.5301 20.6809 12.3999 20.7605 12.3348C20.7967 12.3059 20.8401 12.2986 20.8835 12.3203C20.9124 12.3348 20.9341 12.3637 20.9558 12.3854C20.9775 12.4144 20.9775 12.4505 20.963 12.4795C20.9775 12.4939 20.9847 12.4939 20.9992 12.5084C20.9992 12.5156 21.1872 12.5807 21.2306 12.6386C21.4259 12.8845 21.6067 13.1449 21.7875 13.4054C22.0696 13.8177 22.4168 14.2372 22.641 14.7001ZM21.1077 27.9157C21.3536 27.8289 21.6212 27.771 21.896 27.7421C20.8184 25.8397 18.9162 24.5738 16.8188 24.0024C16.7826 24.2266 16.7464 24.4508 16.7175 24.6751C18.475 24.9282 19.9215 26.2664 20.6954 27.8361C20.7099 27.8216 20.7243 27.8072 20.7388 27.7927C20.8618 27.648 21.086 27.7638 21.1077 27.9157ZM21.3174 17.145C20.9124 17.0076 20.5435 16.6893 20.2398 16.3349C20.1674 16.6893 20.0372 17.0365 19.813 17.3476C19.6828 17.5284 19.5237 17.702 19.3574 17.8684C19.625 18.0492 19.8926 18.2084 20.1964 18.3603C20.3989 18.4543 20.3266 18.7436 20.1385 18.8015C19.6684 18.9462 19.2778 18.57 18.9741 18.2084C18.6703 18.4398 18.3448 18.6424 17.9904 18.787C17.8458 19.778 17.5275 20.9137 17.2382 22.0783C19.003 20.8341 20.2398 19.033 21.3174 17.145ZM19.8854 28.8488C20.03 28.6245 20.1964 28.4148 20.37 28.2122C19.9577 27.5757 19.437 26.997 18.815 26.5847C18.1206 26.1218 17.3974 25.912 16.6379 25.6516C16.6307 26.0639 16.6596 26.4617 16.7247 26.8451C17.2599 26.9391 17.7952 27.2068 18.2653 27.4455C18.8583 27.7493 19.3863 28.0965 19.842 28.5884C19.9143 28.6752 19.9215 28.7692 19.8854 28.8488ZM19.8492 28.8994C19.7697 28.9935 19.625 29.0296 19.4948 28.9284C18.9958 28.516 18.4027 28.2195 17.7952 28.0025C17.542 27.9157 17.2744 27.8433 17.0068 27.7638C17.3974 28.6462 18.1423 29.3479 19.4514 29.7385C19.5382 29.4419 19.6829 29.1671 19.8492 28.8994ZM19.3429 30.3461C19.3502 30.281 19.3574 30.2159 19.3719 30.1508C15.5675 30.1291 15.4807 26.9392 16.081 23.713C15.9436 23.5177 16.0015 23.1994 16.204 23.0837C16.5222 21.5864 16.9345 20.1252 17.1515 19.0185C16.8477 19.0619 16.5367 19.0619 16.2257 18.9968C15.6471 21.3404 14.8443 23.6479 14.6273 26.0639C14.5188 27.214 14.3669 28.7547 15.1046 29.7385C16.0666 31.0188 17.8892 30.6282 19.3429 30.3461ZM19.2055 16.6242C19.8203 15.4307 19.0681 14.6567 18.3882 13.8032C17.1876 13.7381 15.5603 14.2444 15.1914 15.4452C15.0757 15.8213 15.0974 16.2698 15.2276 16.6893C15.5097 16.2192 16.2329 16.6604 15.9798 17.1595C15.9002 17.3114 15.8424 17.4633 15.77 17.608C15.8207 17.6586 15.8713 17.7092 15.9292 17.7526C16.0955 17.7382 16.2763 17.825 16.3631 17.9841C16.4933 18.0275 16.6235 18.0492 16.7681 18.0492C17.7228 18.0492 18.7571 17.4778 19.2055 16.6242ZM18.2219 33.3408C17.6794 32.82 17.3829 32.1762 17.5999 31.4022C16.0087 31.583 14.5188 31.055 13.8968 29.507C13.7738 29.4998 13.6654 29.4202 13.6292 29.2538C13.622 29.2177 13.622 29.1815 13.6147 29.1454C12.2984 27.8867 11.4377 26.1507 11.0978 24.3206C10.4686 26.2375 11.0399 28.2484 12.66 30.0495C14.0921 31.6554 16.0449 33.0659 18.2219 33.3408ZM15.4373 18.6858C15.3939 18.6641 15.365 18.6279 15.3289 18.6062C14.7286 20.0963 14.3525 21.6226 14.1572 23.185C14.5405 21.6732 15.0396 20.1759 15.4373 18.6858ZM14.6201 17.919C14.4899 17.7237 14.3742 17.5212 14.2801 17.3042C13.2242 18.6641 12.5588 20.118 12.2695 21.6009C12.4865 21.543 12.6745 21.8106 12.5009 21.9987C12.378 22.1361 12.2622 22.2736 12.1538 22.411C11.9729 24.2338 12.3852 26.0856 13.3978 27.8506C12.9276 24.4508 13.2386 21.0656 14.6201 17.919Z" fill="#1D1D1B"/>
<path id="Vector_8" d="M33.8659 12.6025C36.3612 15.3006 37.4532 19.6118 35.5872 22.6136C35.5728 22.5847 35.5656 22.5558 35.5583 22.5341C35.3848 22.0856 34.7917 22.1652 34.7411 22.6426C34.6977 23.0187 34.6832 23.3876 34.6687 23.7565C34.4083 24.0025 34.119 24.2267 33.808 24.4365C33.7863 24.451 33.7647 24.4582 33.743 24.4799C33.5115 24.6318 33.2801 24.7837 33.0125 24.9139C32.9835 24.9284 32.9618 24.9501 32.9474 24.979C33.0703 24.4727 33.0848 23.9374 32.9835 23.4093C34.77 21.5359 35.8983 18.4182 34.5892 15.9733C34.459 15.7274 34.025 15.8287 34.0539 16.118C34.3071 18.7293 34.5313 20.8414 32.875 22.997C32.7232 22.5268 32.4266 22.0712 32.0505 21.6805C32.4411 21.0006 32.998 20.1109 32.8533 19.3441C32.8389 19.279 32.7883 19.2501 32.7304 19.2429C34.1407 17.6443 34.1841 15.0041 33.9382 13.0438C33.9165 12.8991 33.8876 12.7472 33.8659 12.6025Z" fill="#FCDA7A"/>
<path id="Vector_9" d="M34.6255 11.489C34.7774 11.7711 34.8714 12.0677 34.9365 12.3642C34.6906 12.1183 34.4302 11.8868 34.1481 11.6771C33.9818 11.5469 33.801 11.5975 33.678 11.7132C33.5044 11.0333 33.2585 10.3533 32.9475 9.7168C33.6708 10.1436 34.2204 10.715 34.6255 11.489Z" fill="#FCDA7A"/>
<path id="Vector_10" d="M34.6399 24.4873C34.6037 25.934 34.5821 27.3084 33.866 28.7695C32.7956 30.9613 30.6041 31.2795 28.5139 30.7153C28.6152 30.2307 28.6658 29.7099 28.6441 29.1674C28.6441 29.1457 28.6296 29.124 28.6296 29.1023C28.796 29.0806 28.9696 29.0444 29.1287 29.001C30.4378 29.7822 31.8915 30.0498 33.1283 28.9721C34.1119 28.1257 34.799 25.9919 34.2566 24.726C34.3868 24.6465 34.5169 24.5741 34.6399 24.4873Z" fill="#FCDA7A"/>
<path id="Vector_11" d="M33.5623 25.1025C33.5262 25.5293 33.5623 25.9706 33.5045 26.3973C33.4177 26.976 33.2007 27.5113 32.9114 28.0176C32.1809 29.3052 30.7922 29.3269 29.5989 28.8422C30.4306 28.5023 31.1756 27.8802 31.7614 26.882C31.7976 26.8096 31.8048 26.7445 31.7976 26.6794C32.3617 26.2961 32.7306 25.7319 32.9186 25.1025C32.9331 25.2183 33.0416 25.3413 33.1718 25.2906C33.3092 25.2327 33.4321 25.1676 33.5623 25.1025Z" fill="#FCDA7A"/>
<path id="Vector_12" d="M32.4772 19.5395C32.5061 19.5105 32.5278 19.4816 32.5495 19.4527C32.4844 19.7637 32.4627 20.082 32.3904 20.393C32.2892 20.7981 32.1156 21.1887 31.942 21.5721C31.0307 20.6823 29.6782 20.1615 28.5282 20.6317C28.4053 20.6823 28.3257 20.7836 28.2823 20.8921C26.6767 21.5865 25.722 23.2141 26.2789 24.979C26.2789 24.9863 26.2789 24.9863 26.2789 24.9935C26.1125 24.7186 25.9679 24.3931 25.8739 24.0097C25.5412 22.686 26.1993 21.2248 27.0962 20.2845C27.1902 20.1832 27.06 19.9952 26.9443 20.0892C26.7707 20.2194 26.6044 20.3641 26.4525 20.5087C26.655 20.1326 26.8358 19.742 26.9804 19.3369C28.6656 20.487 30.8065 21.0802 32.4772 19.5395Z" fill="#FCDA7A"/>
<path id="Vector_13" d="M31.7686 22.9607C32.3255 23.9227 32.123 25.2537 31.19 25.8902C29.9967 26.7076 28.0439 26.1579 27.3279 24.9716C26.5612 23.6985 27.4436 22.1578 28.514 21.3838C28.5212 21.3838 28.5285 21.391 28.5285 21.391C29.8376 21.7599 30.9948 21.6153 31.7686 22.9607Z" fill="#683C11"/>
<path id="Vector_14" d="M30.0689 27.214C30.2135 27.1996 30.3582 27.1779 30.5101 27.1561C29.0997 28.2484 27.6604 28.5594 25.7438 27.9952C23.885 27.4455 22.236 26.1073 21.1367 24.5376C21.1077 24.5015 21.0716 24.4725 21.0354 24.4508C22.7784 24.1615 24.2322 23.3224 25.3098 22.1289C25.0929 22.6786 24.9988 23.2718 25.0856 23.9228C25.252 25.0801 25.9246 26.2592 26.9155 26.9247C25.3677 26.7511 23.9935 25.8903 23.0244 24.2194C22.9665 24.1036 22.7712 24.1832 22.8218 24.3062C23.9067 27.2285 27.2771 28.7475 30.0689 27.214Z" fill="#FCDA7A"/>
<path id="Vector_15" d="M29.1504 12.7979C29.3167 13.2463 29.4108 13.7237 29.3095 14.1577C29.1287 14.8666 28.2319 15.1053 27.5086 15.1849C27.5014 15.1343 27.5014 15.0836 27.4941 15.033C28.3693 14.6135 29.0419 13.8901 29.1504 12.834C29.1504 12.8268 29.1504 12.8123 29.1504 12.7979Z" fill="#FCDA7A"/>
<path id="Vector_16" d="M27.8122 29.1599C27.8122 29.1599 27.8122 29.1599 27.8122 29.1671C27.8122 29.6662 27.7616 30.1364 27.6604 30.5632C27.5519 30.65 27.5085 30.8163 27.5663 30.9321C26.966 32.9574 25.2519 34.1076 22.829 34.1727C21.1655 34.2161 17.9687 33.4204 18.1134 31.3227C18.5546 31.2286 18.9958 31.0912 19.4152 30.9031C19.6395 31.6337 20.341 32.169 20.963 32.5596C21.5922 32.9502 22.1853 33.0659 22.7277 32.9285C23.6969 32.8779 24.6733 32.6392 25.44 32.0316C26.3006 31.3516 26.9371 30.187 26.8648 29.0586C27.183 29.1165 27.5012 29.1526 27.8122 29.1599Z" fill="#FCDA7A"/>
<path id="Vector_17" d="M26.5104 15.3584C26.4887 16.0094 26.4236 16.6604 26.3223 17.2897C26.2934 17.2825 26.2645 17.2753 26.2356 17.2608C26.1271 17.2102 26.033 17.3621 26.1415 17.4272C26.1922 17.4561 26.2356 17.4778 26.2862 17.5067C25.7148 20.6605 24.0079 23.4382 20.4134 24.0313C20.1313 24.0747 20.1964 24.5521 20.4857 24.5304C20.5508 24.5232 20.6159 24.5087 20.681 24.5015C20.6014 24.5738 20.5652 24.6968 20.6448 24.827C21.6067 26.3171 23.3787 27.7927 25.2881 28.5812C25.2664 28.5884 25.2447 28.5956 25.223 28.6101C24.9482 28.856 24.8397 29.2901 24.6878 29.63C24.6733 29.6517 24.6589 29.6807 24.6444 29.7024C24.6155 29.3262 24.5142 28.9573 24.3189 28.639C23.9356 28.0025 23.1473 27.7204 22.3372 27.7132C21.9394 26.592 21.3753 25.6516 20.3844 24.7908C20.0156 24.4726 19.5961 24.1977 19.1621 23.959C20.5074 24.2122 21.7514 22.1506 22.3734 21.2537C23.4293 19.7491 25.0277 17.3621 24.8903 15.3946C24.9771 15.409 25.0567 15.4307 25.1579 15.438C25.5991 15.4814 26.062 15.4524 26.5104 15.3584Z" fill="#FCDA7A"/>
<path id="Vector_18" d="M26.3151 28.9364C26.0837 29.9201 26.0113 30.7664 25.2519 31.5694C24.7746 32.0612 24.1525 32.3506 23.4944 32.5242C23.6969 32.3578 23.885 32.1625 24.0585 31.9093C24.3334 31.5043 24.5287 31.0051 24.6154 30.4843C24.7456 30.318 24.8614 30.1444 24.9771 29.9708C25.2157 29.6091 25.5484 29.1968 25.5846 28.7556C25.5846 28.7338 25.5774 28.7121 25.5701 28.6904C25.8161 28.7845 26.062 28.8713 26.3151 28.9364Z" fill="#FCDA7A"/>
<path id="Vector_19" d="M24.6371 9.67294C24.4346 9.86824 24.2466 10.0997 24.073 10.3384C21.491 8.85554 16.0666 9.23169 17.014 13.1956C15.893 13.2607 14.8153 13.7815 14.2657 14.8593C14.0342 15.2933 13.9691 15.7924 14.0125 16.2843C11.9368 17.7093 10.9748 20.0385 10.9387 22.4328C10.2733 18.9245 12.1393 15.2355 15.3578 13.5718C15.4012 13.5501 15.4229 13.5211 15.4518 13.4994C15.6037 13.579 15.8424 13.4994 15.8713 13.268C16.1317 10.9967 17.6216 9.57888 19.7624 9.00021C21.5922 8.50833 23.0388 9.06532 24.6371 9.67294Z" fill="#FCDA7A"/>
<path id="Vector_20" d="M23.4294 14.6426C23.6319 14.8813 23.8923 15.0838 24.2467 15.2212C23.8995 17.1815 22.9593 18.9465 21.8817 20.6029C21.3464 21.4203 20.7461 22.216 20.0373 22.8887C19.5889 23.3227 19.0899 23.6555 18.9018 23.0334C18.8874 22.9828 18.7933 22.99 18.8006 23.0479C18.815 23.2576 18.9452 23.4746 18.9308 23.6627C18.9235 23.7423 18.9669 23.8218 19.0248 23.8797C18.3811 23.5397 17.694 23.2793 16.9924 23.1347C17.0141 23.0189 17.0431 22.896 17.072 22.7802C20.3845 21.1093 21.9612 17.8759 23.4294 14.6426Z" fill="#FCDA7A"/>
<path id="Vector_21" d="M23.4005 29.1095C23.8633 29.5797 23.6464 30.5128 23.4149 31.0336C23.1762 31.5761 22.6844 32.2344 22.019 32.0463C21.3175 31.851 20.4423 31.1927 20.2037 30.4766C20.2615 30.4043 20.2398 30.3175 20.1675 30.2669C20.1241 29.9124 20.2326 29.5218 20.4134 29.1457C20.4351 29.1457 20.4568 29.1529 20.4857 29.1529C21.0499 29.1674 21.7442 28.8202 22.3807 28.7695C22.3879 28.7768 22.3879 28.784 22.3951 28.7912C22.4458 28.9359 22.6338 28.8925 22.641 28.7695C22.9231 28.784 23.1763 28.878 23.4005 29.1095Z" fill="#683C11"/>
<path id="Vector_22" d="M23.0605 13.9267C22.9159 14.1798 22.7784 14.4402 22.641 14.7006C22.4168 14.2377 22.0696 13.8182 21.7876 13.4059C21.6068 13.1455 21.426 12.8851 21.2307 12.6391C21.1873 12.5813 20.9992 12.5161 20.9992 12.5089C20.9848 12.4944 20.9775 12.4945 20.9631 12.48C20.9775 12.451 20.9775 12.4149 20.9558 12.3859C20.9341 12.3642 20.9124 12.3353 20.8835 12.3208C20.8401 12.2991 20.7967 12.3064 20.7605 12.3353C20.681 12.4004 20.7533 12.5306 20.775 12.6029C20.804 12.6753 20.7388 12.7982 20.7822 12.8995C20.8546 13.0804 20.9414 13.254 21.0354 13.4276C21.4042 14.1075 21.7297 14.8742 22.2432 15.4529C22.0552 15.8001 21.8744 16.1473 21.6791 16.4945C21.2379 16.0605 20.6593 15.7567 20.2687 15.2287C20.2543 15.207 20.247 15.1853 20.2326 15.1708C20.1386 14.6645 19.936 14.1871 19.625 13.782C19.5455 13.4782 19.4948 13.1672 19.4731 12.8561C19.4587 12.6608 19.2417 12.6102 19.126 12.7042C19.4876 12.4221 19.8709 12.1979 20.3194 12.0532C21.0571 11.8217 21.7514 12.1255 22.4313 12.357C22.7929 12.48 22.9954 11.9519 22.6844 11.7639C21.0788 10.7873 19.4515 11.395 18.2219 12.6319C18.0917 12.7621 18.1062 12.914 18.1858 13.0297C18.1134 13.0876 18.0628 13.1672 18.0628 13.2612C17.8458 13.2178 17.6289 13.2033 17.4046 13.1961C17.1153 9.60829 21.2958 10.1725 23.6319 11.0116C23.0967 11.9736 22.8218 13.0659 23.0605 13.9267Z" fill="#FCDA7A"/>
<path id="Vector_23" d="M21.896 27.7426C21.6212 27.7716 21.3536 27.8294 21.1077 27.9162C21.086 27.7643 20.8618 27.6486 20.7388 27.7933C20.7244 27.8077 20.7099 27.8222 20.6954 27.8367C19.9216 26.267 18.475 24.9288 16.7175 24.6756C16.7465 24.4514 16.7826 24.2272 16.8188 24.0029C18.9162 24.5744 20.8184 25.8402 21.896 27.7426Z" fill="#FCDA7A"/>
<path id="Vector_24" d="M20.2398 16.335C20.5436 16.6894 20.9124 17.0077 21.3175 17.1451C20.2398 19.033 19.003 20.8342 17.2383 22.0783C17.5276 20.9137 17.8458 19.7781 17.9905 18.7871C18.3449 18.6424 18.6703 18.4399 18.9741 18.2084C19.2779 18.5701 19.6684 18.9462 20.1385 18.8016C20.3266 18.7437 20.3989 18.4544 20.1964 18.3603C19.8926 18.2084 19.625 18.0493 19.3574 17.8685C19.5238 17.7021 19.6829 17.5285 19.8131 17.3476C20.0373 17.0366 20.1675 16.6894 20.2398 16.335Z" fill="#FCDA7A"/>
<path id="Vector_25" d="M20.3701 28.212C20.1965 28.4146 20.0301 28.6243 19.8855 28.8485C19.9216 28.769 19.9144 28.675 19.8421 28.5882C19.3864 28.0963 18.8584 27.7491 18.2654 27.4453C17.7953 27.2065 17.26 26.9389 16.7248 26.8449C16.6597 26.4615 16.6308 26.0637 16.638 25.6514C17.3975 25.9118 18.1207 26.1215 18.8151 26.5845C19.4371 26.9968 19.9578 27.5755 20.3701 28.212Z" fill="#FCDA7A"/>
<path id="Vector_26" d="M19.4948 28.9292C19.625 29.0305 19.7697 28.9943 19.8492 28.9003C19.6829 29.1679 19.5382 29.4428 19.4514 29.7394C18.1423 29.3488 17.3974 28.6471 17.0068 27.7646C17.2744 27.8442 17.542 27.9166 17.7952 28.0034C18.4027 28.2204 18.9958 28.5169 19.4948 28.9292Z" fill="#FCDA7A"/>
<path id="Vector_27" d="M19.3718 30.1511C19.3574 30.2162 19.3501 30.2813 19.3429 30.3464C17.8892 30.6285 16.0666 31.0191 15.1046 29.7388C14.3669 28.755 14.5188 27.2143 14.6273 26.0642C14.8443 23.6482 15.6471 21.3407 16.2257 18.9971C16.5367 19.0622 16.8477 19.0622 17.1514 19.0188C16.9345 20.1255 16.5222 21.5866 16.204 23.084C16.0015 23.1997 15.9436 23.518 16.081 23.7133C15.4807 26.9394 15.5675 30.1294 19.3718 30.1511Z" fill="#FCDA7A"/>
<path id="Vector_28" d="M18.3882 13.8034C19.068 14.6569 19.8202 15.4309 19.2054 16.6244C18.757 17.478 17.7228 18.0494 16.7681 18.0494C16.6234 18.0494 16.4932 18.0277 16.363 17.9843C16.2763 17.8252 16.0954 17.7384 15.9291 17.7529C15.8712 17.7095 15.8206 17.6588 15.77 17.6082C15.8423 17.4635 15.9002 17.3116 15.9797 17.1597C16.2329 16.6606 15.5096 16.2194 15.2275 16.6895C15.0973 16.27 15.0757 15.8215 15.1914 15.4454C15.5602 14.2446 17.1875 13.7383 18.3882 13.8034Z" fill="#683C11"/>
<path id="Vector_29" d="M17.5999 31.4028C17.3829 32.1768 17.6794 32.8206 18.2219 33.3414C16.0449 33.0665 14.0921 31.656 12.66 30.0502C11.0399 28.249 10.4686 26.2382 11.0978 24.3213C11.4377 26.1514 12.2984 27.8874 13.6147 29.146C13.622 29.1822 13.622 29.2183 13.6292 29.2545C13.6654 29.4209 13.7738 29.5004 13.8968 29.5077C14.5188 31.0556 16.0087 31.5837 17.5999 31.4028Z" fill="#FCDA7A"/>
<path id="Vector_30" d="M15.3289 18.6064C15.3651 18.6281 15.394 18.6643 15.4374 18.686C15.0396 20.1761 14.5406 21.6734 14.1572 23.1852C14.3525 21.6228 14.7286 20.0965 15.3289 18.6064Z" fill="#FCDA7A"/>
<path id="Vector_31" d="M14.2802 17.3047C14.3743 17.5217 14.49 17.7242 14.6202 17.9195C13.2388 21.0661 12.9278 24.4514 13.3979 27.8511C12.3853 26.0861 11.9731 24.2343 12.1539 22.4115C12.2624 22.2741 12.3781 22.1366 12.501 21.9992C12.6746 21.8111 12.4866 21.5435 12.2696 21.6014C12.5589 20.1185 13.2243 18.6646 14.2802 17.3047Z" fill="#FCDA7A"/>
</g>
</svg>
