<svg width="44" height="41" viewBox="0 0 44 41" fill="none" xmlns="http://www.w3.org/2000/svg">
<g id="Group">
<path id="Vector" d="M43.3997 8.8302C43.7497 11.0859 44.0685 16.5229 42.1009 18.7475C42.8008 19.5175 43.2597 20.5287 43.3841 21.7888C44.3718 31.8461 34.798 34.7629 27.0674 37.1742C26.8418 37.252 26.6396 37.2286 26.4763 37.1431C26.4685 37.9287 26.3052 38.7609 26.3052 39.4143C26.313 39.7721 26.0641 40.0599 25.7297 40.1688C24.2364 40.6511 22.6732 40.2621 21.1411 40.2466C20.6511 40.2388 20.3633 39.8655 20.3167 39.4143C20.2467 38.8232 20.1611 38.162 20.2467 37.5475C19.7256 37.5086 19.2045 37.462 18.699 37.3997C17.929 37.4231 17.1669 37.3064 16.4591 37.0108C9.87178 35.5796 5.11208 31.6127 2.5689 24.6356C1.83784 22.6366 0.150159 19.2142 1.28564 17.0518C1.76006 16.134 2.50668 15.8384 3.33108 15.854C1.48008 13.1627 0.554584 9.28133 0.951226 6.19336C1.38675 2.78648 3.74327 2.77871 5.71093 4.86328C5.0343 0.149656 10.6028 -0.690405 13.3249 2.37423C15.347 0.429664 17.5169 0.06409 18.909 2.86426C18.9245 2.83315 18.9245 2.80204 18.9479 2.77093C20.8922 -0.223702 24.3531 -1.19598 26.1963 1.89977C28.2728 0.305224 30.3572 0.0952067 31.6093 2.57647C33.7869 1.89976 35.3269 2.42092 35.9724 4.58328C39.6899 2.40536 42.7619 4.76217 43.3997 8.8302ZM41.5331 15.045C41.8364 13.5438 41.992 11.9959 41.8675 10.4714C41.572 6.93229 40.0632 4.20991 36.2057 5.7889C36.1824 5.79667 36.1668 5.79668 36.1513 5.79668C36.0035 6.2556 35.3813 6.48894 35.0935 5.96002C34.0514 4.07768 33.7714 3.22985 31.4149 4.16324C31.026 4.31103 30.6605 3.99213 30.5361 3.65766C28.9573 2.02423 27.604 1.98532 26.4763 3.54097C26.0408 3.92988 25.473 3.72767 25.2708 3.22208C23.8165 -0.324806 21.2188 1.66643 19.7489 3.3932C19.5778 3.59544 19.3367 3.57988 19.1501 3.4632C19.2045 4.03102 18.279 4.34215 17.9679 3.78212C16.5758 1.27752 15.0748 2.4598 13.7604 3.96879C13.4416 4.33436 12.8738 4.19436 12.6405 3.82878C10.8128 1.00528 6.48087 1.33195 6.69086 5.22107C6.70641 5.50109 6.47309 5.65666 6.23978 5.65666C6.232 6.01446 5.82758 6.28671 5.4776 5.98335C4.83987 5.44665 2.98887 3.57208 2.62334 5.26774C2.37447 6.43448 2.44446 7.70234 2.63111 8.86908C3.0122 11.2881 3.51773 13.9405 4.71543 16.1184C4.99542 16.2118 5.26762 16.3207 5.53982 16.4373C5.58649 13.6216 7.21195 12.5093 9.83289 13.8549C11.225 10.7436 13.9626 9.88025 16.6614 12.0271C19.0568 9.20354 21.2189 10.2458 22.7043 12.6104C23.5287 9.78691 26.2974 8.34795 27.7129 11.5293C30.4894 10.2381 32.2781 11.7004 32.7992 14.5472C33.7792 14.205 34.7202 14.0961 35.7779 14.5783C37.2167 15.2395 36.4546 16.8029 38.1422 16.9585C39.0055 17.0362 39.7988 17.2463 40.5065 17.5807C40.8565 16.7485 41.3465 15.9395 41.5331 15.045ZM40.491 27.6769C42.3653 23.6089 42.342 18.1875 36.4857 18.8019C36.1279 18.8408 35.7157 18.5141 35.6457 18.1641C35.288 16.2895 34.2458 15.7139 32.527 16.4762C31.936 16.7407 31.2827 16.4295 31.2516 15.7451C31.1427 13.4038 29.9216 12.0037 27.6818 13.3649C27.2385 13.6372 26.6396 13.3805 26.5074 12.8905C24.6564 11.4826 23.6454 11.7237 23.4665 13.6216C23.4509 13.7305 23.4276 13.8394 23.412 13.9483C24.3842 16.1106 24.8742 18.8175 24.672 20.8243C25.2864 20.6065 25.9552 20.5209 26.6707 20.622C28.895 20.9487 29.7661 22.8155 29.4783 24.729C30.6371 24.1689 32.0682 23.8345 32.8537 25.009C33.5925 26.1057 33.1726 27.3191 32.527 28.3614C33.6781 28.6103 34.938 29.0848 35.1557 30.2515C35.3813 31.3949 34.2536 32.3594 33.4681 32.9739C33.1337 33.2384 32.7837 33.4873 32.4337 33.7206C35.8013 32.5539 38.9977 30.9204 40.491 27.6769ZM33.6314 30.9049C34.1758 29.9404 31.5782 29.7148 31.026 29.6215C30.396 29.5281 30.3805 28.7503 30.6838 28.3536C30.8938 28.097 32.7292 25.6235 31.0571 25.6468C30.2794 25.6546 29.7117 25.8568 29.0273 26.1757C28.7473 26.5802 28.024 26.3235 28.0395 25.8257C28.0862 24.3167 28.3428 21.7732 26.0019 22.0844C24.0653 22.341 22.8365 23.8111 22.2688 25.5768C22.0277 26.3157 20.8378 26.2146 20.8689 25.3901C20.8766 25.2034 20.5811 20.1709 18.8545 22.2321C18.1001 23.1266 17.9679 24.0289 17.8124 25.1179C17.7346 25.709 16.9102 25.6857 16.6458 25.2734C15.8681 23.3289 14.8259 23.4689 13.5115 25.6701C13.6127 25.9657 13.7138 26.2535 13.8226 26.5491C13.9782 26.9924 13.5038 27.3658 13.0994 27.2724C10.2995 26.6113 11.2484 28.4703 12.9982 29.0926C13.3171 29.2092 13.4882 29.4348 13.5115 29.7693C13.7838 33.3395 16.778 36.6375 20.5344 35.743C21.18 35.5874 21.4755 36.2719 21.1877 36.6997C21.3277 36.7386 21.4522 36.8241 21.5299 36.9875C21.561 37.0575 21.5922 37.1275 21.6233 37.1975C21.8099 37.5864 21.8566 38.1231 21.9033 38.6365C22.8676 38.7298 23.8476 38.8854 24.812 38.7609C24.8586 38.3409 24.9053 37.9209 24.9442 37.5009C24.9908 36.9486 24.8819 36.4508 24.8819 35.9063C24.8819 35.3696 25.543 35.074 25.9397 35.4241C26.2819 34.9263 27.0596 34.7474 27.5729 34.514C28.6228 34.0395 29.6728 33.5573 30.6838 32.9973C31.6171 32.4761 33.0714 31.885 33.6314 30.9049ZM23.0076 21.2287C23.7698 18.0319 21.4599 8.28572 17.2913 13.6449C17.0347 13.9639 16.4903 13.9016 16.2258 13.6449C13.2627 11.7004 11.4739 12.1671 10.8595 15.0528C10.7195 15.4651 10.2295 15.7217 9.83289 15.4728C8.21522 14.4383 6.79975 15.7062 6.90085 17.4952C6.93196 18.0241 6.32533 18.2808 5.90536 18.063C-0.682009 14.6172 4.12436 24.9701 5.57094 27.3891C7.6397 30.8349 10.4084 32.9895 13.636 34.4907C13.2549 33.9462 12.9205 33.3706 12.6949 32.725C12.3605 31.7683 12.4927 30.5238 11.5361 30.0415C10.6806 29.6215 8.16855 28.1358 9.19515 26.7357C9.99621 25.6468 11.2172 25.6701 12.4072 25.9035C11.6683 22.4733 14.5148 21.291 16.8325 23.5156C17.2369 21.9443 18.0846 20.412 19.9123 20.5831C21.1411 20.6998 21.7555 21.7266 22.051 22.8855C22.3465 22.4733 22.6965 22.0921 23.0776 21.7654C22.9998 21.6177 22.961 21.4388 23.0076 21.2287Z" fill="#1D1D1B"/>
<path id="Vector_2" d="M41.8676 10.4711C41.992 11.9956 41.8365 13.5435 41.5332 15.0447C41.3465 15.9392 40.8565 16.7481 40.5065 17.5804C39.7988 17.246 39.0056 17.0359 38.1423 16.9581C36.4546 16.8026 37.2168 15.2391 35.778 14.578C34.7203 14.0957 33.7792 14.2047 32.7993 14.5469C32.2782 11.7001 30.4894 10.2377 27.7129 11.5289C26.2974 8.34762 23.5287 9.78659 22.7043 12.6101C21.2189 10.2455 19.0568 9.20322 16.6614 12.0267C13.9627 9.87993 11.2251 10.7433 9.83292 13.8546C7.21197 12.509 5.58652 13.6213 5.53985 16.437C5.26765 16.3203 4.99544 16.2114 4.71546 16.1181C3.51776 13.9402 3.01223 11.2878 2.63114 8.86875C2.44449 7.70202 2.37449 6.43415 2.62337 5.26742C2.9889 3.57176 4.83989 5.44633 5.47763 5.98303C5.82761 6.28638 6.23203 6.01413 6.2398 5.65633C6.47312 5.65633 6.70644 5.50077 6.69089 5.22075C6.4809 1.33162 10.8129 1.00495 12.6405 3.82846C12.8738 4.19404 13.4416 4.33404 13.7605 3.96846C15.0748 2.45948 16.5758 1.27719 17.968 3.78179C18.2791 4.34182 19.2046 4.03069 19.1501 3.46288C19.3368 3.57955 19.5779 3.59511 19.749 3.39288C21.2189 1.6661 23.8165 -0.325133 25.2708 3.22175C25.473 3.72734 26.0408 3.92955 26.4763 3.54064C27.604 1.98499 28.9573 2.0239 30.5361 3.65733C30.6605 3.9918 31.026 4.3107 31.4149 4.16292C33.7714 3.22953 34.0514 4.07735 35.0936 5.95969C35.3813 6.48861 36.0035 6.25527 36.1513 5.79636C36.1668 5.79636 36.1824 5.79635 36.2057 5.78857C40.0632 4.20958 41.572 6.93197 41.8676 10.4711Z" fill="#99B815"/>
<path id="Vector_3" d="M36.4855 18.8026C42.3418 18.1881 42.3651 23.6096 40.4908 27.6776C38.9976 30.9211 35.8011 32.5546 32.4335 33.7213C32.7835 33.488 33.1335 33.2391 33.4679 32.9746C34.2534 32.3601 35.3811 31.3956 35.1556 30.2522C34.9378 29.0855 33.6779 28.611 32.5269 28.3621C33.1724 27.3198 33.5923 26.1064 32.8535 25.0096C32.068 23.8351 30.637 24.1696 29.4782 24.7296C29.7659 22.8162 28.8949 20.9494 26.6706 20.6227C25.955 20.5216 25.2862 20.6071 24.6718 20.8249C24.874 18.8181 24.384 16.1113 23.4119 13.949C23.4274 13.8401 23.4508 13.7312 23.4663 13.6223C23.6452 11.7244 24.6562 11.4833 26.5072 12.8911C26.6395 13.3812 27.2383 13.6378 27.6816 13.3656C29.9215 12.0044 31.1425 13.4045 31.2514 15.7457C31.2825 16.4302 31.9358 16.7414 32.5269 16.4769C34.2456 15.7146 35.2878 16.2902 35.6455 18.1648C35.7155 18.5148 36.1277 18.8415 36.4855 18.8026Z" fill="#99B815"/>
<path id="Vector_4" d="M31.026 29.6215C31.5782 29.7149 34.1758 29.9404 33.6314 30.9049C33.0714 31.885 31.6171 32.4762 30.6838 32.9973C29.6727 33.5573 28.6228 34.0396 27.5729 34.514C27.0596 34.7474 26.2819 34.9263 25.9397 35.4241C25.543 35.0741 24.8819 35.3697 24.8819 35.9064C24.8819 36.4508 24.9908 36.9486 24.9442 37.5009C24.9053 37.9209 24.8586 38.3409 24.8119 38.761C23.8476 38.8854 22.8676 38.7299 21.9032 38.6365C21.8566 38.1232 21.8099 37.5865 21.6233 37.1976C21.5922 37.1276 21.561 37.0575 21.5299 36.9875C21.4522 36.8242 21.3277 36.7386 21.1877 36.6997C21.4755 36.2719 21.1799 35.5875 20.5344 35.743C16.778 36.6375 13.7837 33.3395 13.5115 29.7693C13.4882 29.4348 13.3171 29.2093 12.9982 29.0926C11.2483 28.4703 10.2995 26.6113 13.0993 27.2725C13.5038 27.3658 13.9782 26.9925 13.8226 26.5491C13.7137 26.2535 13.6126 25.9657 13.5115 25.6702C14.8259 23.4689 15.8681 23.3289 16.6458 25.2735C16.9102 25.6857 17.7346 25.7091 17.8124 25.1179C17.9679 24.029 18.1001 23.1267 18.8545 22.2322C20.5811 20.1709 20.8766 25.2035 20.8689 25.3902C20.8378 26.2147 22.0277 26.3158 22.2688 25.5768C22.8365 23.8112 24.0653 22.3411 26.0019 22.0844C28.3428 21.7733 28.0862 24.3168 28.0395 25.8257C28.024 26.3236 28.7473 26.5802 29.0272 26.1758C29.7117 25.8568 30.2794 25.6546 31.0571 25.6468C32.7292 25.6235 30.8938 28.097 30.6838 28.3537C30.3805 28.7504 30.396 29.5282 31.026 29.6215Z" fill="#99B815"/>
<path id="Vector_5" d="M17.2913 13.6449C21.4599 8.28566 23.7698 18.0318 23.0076 21.2287C22.9609 21.4387 22.9998 21.6176 23.0776 21.7654C22.6965 22.0921 22.3465 22.4732 22.051 22.8855C21.7554 21.7265 21.141 20.6997 19.9122 20.5831C18.0846 20.412 17.2368 21.9443 16.8324 23.5155C14.5148 21.2909 11.6683 22.4732 12.4071 25.9034C11.2172 25.6701 9.99617 25.6467 9.19511 26.7357C8.16851 28.1358 10.6806 29.6214 11.5361 30.0414C12.4927 30.5237 12.3605 31.7682 12.6949 32.725C12.9204 33.3705 13.2549 33.9461 13.6359 34.4906C10.4084 32.9894 7.63966 30.8348 5.5709 27.3891C4.12432 24.97 -0.68205 14.6172 5.90532 18.0629C6.32529 18.2807 6.93192 18.024 6.90081 17.4951C6.7997 15.7061 8.21517 14.4383 9.83285 15.4728C10.2295 15.7217 10.7195 15.465 10.8594 15.0527C11.4739 12.167 13.2626 11.7003 16.2258 13.6449C16.4902 13.9016 17.0346 13.9638 17.2913 13.6449Z" fill="#99B815"/>
</g>
</svg>
