<svg width="27" height="27" viewBox="0 0 27 27" fill="none" xmlns="http://www.w3.org/2000/svg">
<g id="L&#198;&#176;u">
<g id="Union">
<path fill-rule="evenodd" clip-rule="evenodd" d="M13.4752 2.58643C11.7849 2.58643 10.3804 2.64668 9.241 2.87986C8.08729 3.11597 7.13645 3.54283 6.42209 4.32541C5.71615 5.09876 5.32337 6.1303 5.09823 7.40933C4.8735 8.68606 4.80295 10.289 4.80295 12.2752C4.80295 13.0417 4.80165 13.7614 4.80043 14.4364L4.80043 14.4365C4.79466 17.6291 4.7907 19.824 4.93465 21.2556C5.02053 22.1097 5.16864 22.8347 5.49429 23.3554C5.66942 23.6354 5.90201 23.8674 6.20401 24.0219C6.50062 24.1737 6.81377 24.2249 7.11352 24.2249C7.79832 24.2249 8.46234 23.8482 8.99833 23.4758C9.52156 23.1122 10.0723 22.6415 10.5932 22.1964L10.5932 22.1964L10.7165 22.0911C11.2917 21.6001 11.8319 21.1468 12.3389 20.814C12.8647 20.4688 13.2344 20.3363 13.4752 20.3363C13.7161 20.3363 14.0857 20.4688 14.6116 20.814C15.1185 21.1468 15.6588 21.6001 16.234 22.0911L16.3572 22.1964C16.8781 22.6415 17.4289 23.1122 17.9521 23.4758C18.4881 23.8482 19.1521 24.2249 19.8369 24.2249C20.1367 24.2249 20.4498 24.1737 20.7464 24.0219C21.0484 23.8674 21.281 23.6354 21.4562 23.3554C21.7818 22.8347 21.9299 22.1097 22.0158 21.2556C22.1598 19.824 22.1558 17.6292 22.15 14.4365L22.15 14.4343C22.1488 13.7599 22.1475 13.0409 22.1475 12.2752C22.1475 10.289 22.0769 8.68606 21.8522 7.40933C21.6271 6.1303 21.2343 5.09876 20.5284 4.32541C19.814 3.54283 18.8632 3.11597 17.7094 2.87986C16.5701 2.64668 15.1655 2.58643 13.4752 2.58643ZM6.38625 12.2752C6.38625 10.3046 6.45807 8.81715 6.65756 7.6838C6.85665 6.55274 7.16996 5.8546 7.59146 5.39284C8.00454 4.94031 8.6025 4.62665 9.55845 4.43101C10.5287 4.23244 11.7947 4.16973 13.4752 4.16973C15.1558 4.16973 16.4217 4.23244 17.392 4.43101C18.3479 4.62665 18.9459 4.94031 19.359 5.39284C19.7805 5.8546 20.0938 6.55274 20.2929 7.6838C20.4924 8.81715 20.5642 10.3046 20.5642 12.2752C20.5642 13.0604 20.5654 13.7917 20.5666 14.4727C20.572 17.6665 20.5755 19.7536 20.4404 21.0972C20.3572 21.9252 20.2308 22.3286 20.1138 22.5158C20.0675 22.5897 20.0367 22.6066 20.0253 22.6124C20.0085 22.621 19.9583 22.6416 19.8369 22.6416C19.6799 22.6416 19.3689 22.5322 18.8556 22.1755C18.4005 21.8593 17.9082 21.4388 17.3677 20.9772L17.2619 20.8868C16.6981 20.4056 16.0841 19.8867 15.4805 19.4905C14.8958 19.1066 14.1986 18.753 13.4752 18.753C12.7518 18.753 12.0546 19.1066 11.4699 19.4905C10.8663 19.8867 10.2523 20.4056 9.68858 20.8868L9.58277 20.9772L9.58272 20.9772C9.04224 21.4388 8.54995 21.8593 8.09488 22.1755C7.58153 22.5322 7.2705 22.6416 7.11352 22.6416C6.99211 22.6416 6.94193 22.621 6.92514 22.6124C6.91376 22.6066 6.88291 22.5897 6.83668 22.5158C6.7196 22.3286 6.59326 21.9252 6.51 21.0972C6.3749 19.7536 6.37844 17.6665 6.38386 14.4728L6.38386 14.4726C6.38501 13.7916 6.38625 13.0603 6.38625 12.2752ZM9.8571 9.67719C9.41988 9.67719 9.06545 10.0316 9.06545 10.4688C9.06545 10.9061 9.41988 11.2605 9.8571 11.2605H17.0928C17.53 11.2605 17.8844 10.9061 17.8844 10.4688C17.8844 10.0316 17.53 9.67719 17.0928 9.67719H9.8571Z" fill="#8B8B8B"/>
<path d="M9.241 2.87986L9.34125 3.36971L9.241 2.87986ZM6.42209 4.32541L6.05281 3.98831L6.42209 4.32541ZM5.09823 7.40933L4.60581 7.32265H4.60581L5.09823 7.40933ZM4.80043 14.4364L5.30043 14.4374L5.30043 14.4373L4.80043 14.4364ZM4.80043 14.4365L4.30043 14.4355L4.30043 14.4356L4.80043 14.4365ZM4.93465 21.2556L4.43715 21.3056L4.93465 21.2556ZM5.49429 23.3554L5.07037 23.6205H5.07037L5.49429 23.3554ZM6.20401 24.0219L5.97628 24.467L5.97628 24.467L6.20401 24.0219ZM8.99833 23.4758L8.71302 23.0651H8.71302L8.99833 23.4758ZM10.5932 22.1964L10.2731 21.8123L10.2683 21.8163L10.5932 22.1964ZM10.5932 22.1964L10.9133 22.5805L10.918 22.5765L10.5932 22.1964ZM10.7165 22.0911L10.3919 21.7108L10.3917 21.7109L10.7165 22.0911ZM12.3389 20.814L12.6133 21.232H12.6133L12.3389 20.814ZM14.6116 20.814L14.3372 21.232L14.6116 20.814ZM16.234 22.0911L16.5587 21.7109L16.5586 21.7108L16.234 22.0911ZM16.3572 22.1964L16.6821 21.8163L16.682 21.8162L16.3572 22.1964ZM17.9521 23.4758L17.6668 23.8864H17.6668L17.9521 23.4758ZM20.7464 24.0219L20.9742 24.467L20.9742 24.467L20.7464 24.0219ZM21.4562 23.3554L21.0322 23.0902V23.0902L21.4562 23.3554ZM22.0158 21.2556L21.5183 21.2055L22.0158 21.2556ZM22.15 14.4365L22.65 14.4356V14.4352L22.15 14.4365ZM22.15 14.4343L21.65 14.4352V14.4357L22.15 14.4343ZM21.8522 7.40933L22.3446 7.32265V7.32265L21.8522 7.40933ZM20.5284 4.32541L20.8976 3.98831V3.98831L20.5284 4.32541ZM17.7094 2.87986L17.6092 3.36971L17.7094 2.87986ZM6.65756 7.6838L7.14999 7.77048L6.65756 7.6838ZM7.59146 5.39284L7.96074 5.72993L7.59146 5.39284ZM9.55845 4.43101L9.4582 3.94116L9.55845 4.43101ZM17.392 4.43101L17.2918 4.92086L17.392 4.43101ZM19.359 5.39284L19.7283 5.05575V5.05575L19.359 5.39284ZM20.2929 7.6838L19.8005 7.77048V7.77048L20.2929 7.6838ZM20.5666 14.4727L21.0666 14.4719V14.4719L20.5666 14.4727ZM20.4404 21.0972L20.9379 21.1472L20.4404 21.0972ZM20.1138 22.5158L20.5377 22.7809L20.5377 22.7809L20.1138 22.5158ZM20.0253 22.6124L19.7976 22.1672L19.7976 22.1672L20.0253 22.6124ZM18.8556 22.1755L19.1409 21.7649H19.1409L18.8556 22.1755ZM17.3677 20.9772L17.6924 20.597L17.6924 20.5969L17.3677 20.9772ZM17.2619 20.8868L17.5866 20.5066L17.5865 20.5065L17.2619 20.8868ZM15.4805 19.4905L15.7549 19.0725L15.4805 19.4905ZM11.4699 19.4905L11.1955 19.0725H11.1955L11.4699 19.4905ZM9.68858 20.8868L9.36397 20.5065L9.36389 20.5066L9.68858 20.8868ZM9.58277 20.9772L9.90626 21.3584L9.90746 21.3574L9.58277 20.9772ZM9.58272 20.9772L9.25923 20.5959L9.25799 20.597L9.58272 20.9772ZM8.09488 22.1755L8.38018 22.5861H8.38018L8.09488 22.1755ZM6.92514 22.6124L7.15288 22.1672L7.15281 22.1672L6.92514 22.6124ZM6.83668 22.5158L6.41276 22.7809L6.41276 22.7809L6.83668 22.5158ZM6.51 21.0972L7.00749 21.0471L6.51 21.0972ZM6.38386 14.4728L5.88386 14.4717L5.88386 14.4719L6.38386 14.4728ZM6.38386 14.4726L6.88386 14.4737L6.88386 14.4734L6.38386 14.4726ZM9.34125 3.36971C10.4273 3.14745 11.7881 3.08643 13.4752 3.08643V2.08643C11.7818 2.08643 10.3335 2.14591 9.14075 2.39001L9.34125 3.36971ZM6.79137 4.6625C7.41052 3.98423 8.24984 3.59307 9.34125 3.36971L9.14075 2.39001C7.92474 2.63887 6.86239 3.10143 6.05281 3.98831L6.79137 4.6625ZM5.59066 7.496C5.80758 6.26367 6.17528 5.33743 6.79137 4.6625L6.05281 3.98831C5.25703 4.86009 4.83916 5.99693 4.60581 7.32265L5.59066 7.496ZM5.30295 12.2752C5.30295 10.294 5.3739 8.72748 5.59066 7.496L4.60581 7.32265C4.37311 8.64465 4.30295 10.2841 4.30295 12.2752H5.30295ZM5.30043 14.4373C5.30165 13.7623 5.30295 13.0422 5.30295 12.2752H4.30295C4.30295 13.0412 4.30165 13.7604 4.30043 14.4355L5.30043 14.4373ZM5.30043 14.4375L5.30043 14.4374L4.30043 14.4355L4.30043 14.4355L5.30043 14.4375ZM5.43214 21.2055C5.29142 19.8062 5.29464 17.6441 5.30043 14.4374L4.30043 14.4356C4.29469 17.6142 4.28997 19.8419 4.43715 21.3056L5.43214 21.2055ZM5.91821 23.0902C5.65826 22.6746 5.51713 22.0508 5.43214 21.2055L4.43715 21.3056C4.52394 22.1686 4.67901 22.9947 5.07037 23.6205L5.91821 23.0902ZM6.43174 23.5768C6.22164 23.4693 6.05272 23.3053 5.91821 23.0902L5.07037 23.6205C5.28612 23.9655 5.58238 24.2655 5.97628 24.467L6.43174 23.5768ZM7.11352 23.7249C6.86997 23.7249 6.6399 23.6833 6.43174 23.5768L5.97628 24.467C6.36133 24.664 6.75757 24.7249 7.11352 24.7249V23.7249ZM8.71302 23.0651C8.18496 23.4321 7.63208 23.7249 7.11352 23.7249V24.7249C7.96456 24.7249 8.73972 24.2643 9.28363 23.8864L8.71302 23.0651ZM10.2683 21.8163C9.74275 22.2655 9.21177 22.7186 8.71302 23.0651L9.28363 23.8864C9.83134 23.5058 10.4019 23.0176 10.918 22.5765L10.2683 21.8163ZM10.2731 21.8123L10.2731 21.8123L10.9133 22.5805L10.9133 22.5805L10.2731 21.8123ZM10.3917 21.7109L10.2685 21.8162L10.918 22.5765L11.0413 22.4712L10.3917 21.7109ZM12.0645 20.396C11.5269 20.7489 10.9633 21.223 10.3919 21.7108L11.0411 22.4714C11.62 21.9772 12.1369 21.5447 12.6133 21.232L12.0645 20.396ZM13.4752 19.8363C13.0816 19.8363 12.6083 20.039 12.0645 20.396L12.6133 21.232C13.1212 20.8985 13.3872 20.8363 13.4752 20.8363V19.8363ZM14.886 20.396C14.3422 20.039 13.8688 19.8363 13.4752 19.8363V20.8363C13.5633 20.8363 13.8293 20.8985 14.3372 21.232L14.886 20.396ZM16.5586 21.7108C15.9871 21.223 15.4235 20.7489 14.886 20.396L14.3372 21.232C14.8136 21.5447 15.3304 21.9772 15.9093 22.4714L16.5586 21.7108ZM16.682 21.8162L16.5587 21.7109L15.9092 22.4712L16.0325 22.5765L16.682 21.8162ZM18.2374 23.0651C17.7387 22.7186 17.2077 22.2654 16.6821 21.8163L16.0324 22.5765C16.5485 23.0176 17.1191 23.5058 17.6668 23.8864L18.2374 23.0651ZM19.8369 23.7249C19.3184 23.7249 18.7655 23.4321 18.2374 23.0651L17.6668 23.8864C18.2107 24.2643 18.9859 24.7249 19.8369 24.7249V23.7249ZM20.5187 23.5768C20.3105 23.6833 20.0805 23.7249 19.8369 23.7249V24.7249C20.1929 24.7249 20.5891 24.664 20.9742 24.467L20.5187 23.5768ZM21.0322 23.0902C20.8977 23.3053 20.7288 23.4693 20.5187 23.5768L20.9742 24.467C21.3681 24.2655 21.6643 23.9655 21.8801 23.6205L21.0322 23.0902ZM21.5183 21.2055C21.4333 22.0508 21.2922 22.6746 21.0322 23.0902L21.8801 23.6205C22.2714 22.9947 22.4265 22.1686 22.5133 21.3056L21.5183 21.2055ZM21.65 14.4374C21.6558 17.6441 21.659 19.8062 21.5183 21.2055L22.5133 21.3056C22.6605 19.8419 22.6558 17.6142 22.65 14.4356L21.65 14.4374ZM21.65 14.4357L21.65 14.4378L22.65 14.4352L22.65 14.433L21.65 14.4357ZM21.6475 12.2752C21.6475 13.0414 21.6488 13.7608 21.65 14.4352L22.65 14.4334C22.6488 13.7589 22.6475 13.0404 22.6475 12.2752H21.6475ZM21.3598 7.496C21.5765 8.72748 21.6475 10.294 21.6475 12.2752H22.6475C22.6475 10.2841 22.5773 8.64465 22.3446 7.32265L21.3598 7.496ZM20.1591 4.6625C20.7752 5.33743 21.1429 6.26367 21.3598 7.496L22.3446 7.32265C22.1113 5.99693 21.6934 4.86009 20.8976 3.98831L20.1591 4.6625ZM17.6092 3.36971C18.7006 3.59307 19.5399 3.98423 20.1591 4.6625L20.8976 3.98831C20.0881 3.10143 19.0257 2.63887 17.8097 2.39001L17.6092 3.36971ZM13.4752 3.08643C15.1624 3.08643 16.5232 3.14745 17.6092 3.36971L17.8097 2.39001C16.6169 2.14591 15.1687 2.08643 13.4752 2.08643V3.08643ZM6.16513 7.59712C5.95767 8.77577 5.88625 10.2998 5.88625 12.2752H6.88625C6.88625 10.3095 6.95848 8.85852 7.14999 7.77048L6.16513 7.59712ZM7.22218 5.05575C6.71088 5.61588 6.37246 6.41928 6.16513 7.59712L7.14999 7.77048C7.34085 6.6862 7.62904 6.09331 7.96074 5.72993L7.22218 5.05575ZM9.4582 3.94116C8.43958 4.14963 7.73029 4.49911 7.22218 5.05575L7.96074 5.72993C8.27879 5.38151 8.76543 5.10367 9.6587 4.92086L9.4582 3.94116ZM13.4752 3.66973C11.7917 3.66973 10.4819 3.73166 9.4582 3.94116L9.6587 4.92086C10.5755 4.73323 11.7977 4.66973 13.4752 4.66973V3.66973ZM17.4922 3.94116C16.4685 3.73166 15.1588 3.66973 13.4752 3.66973V4.66973C15.1528 4.66973 16.3749 4.73323 17.2918 4.92086L17.4922 3.94116ZM19.7283 5.05575C19.2202 4.49911 18.5109 4.14963 17.4922 3.94116L17.2918 4.92086C18.185 5.10367 18.6717 5.38151 18.9897 5.72993L19.7283 5.05575ZM20.7853 7.59712C20.578 6.41928 20.2396 5.61588 19.7283 5.05575L18.9897 5.72993C19.3214 6.09331 19.6096 6.6862 19.8005 7.77048L20.7853 7.59712ZM21.0642 12.2752C21.0642 10.2998 20.9928 8.77577 20.7853 7.59712L19.8005 7.77048C19.992 8.85852 20.0642 10.3095 20.0642 12.2752H21.0642ZM21.0666 14.4719C21.0654 13.7908 21.0642 13.0599 21.0642 12.2752H20.0642C20.0642 13.0609 20.0654 13.7926 20.0666 14.4736L21.0666 14.4719ZM20.9379 21.1472C21.0763 19.7714 21.072 17.6511 21.0666 14.4719L20.0666 14.4736C20.072 17.682 20.0748 19.7358 19.943 21.0471L20.9379 21.1472ZM20.5377 22.7809C20.7209 22.488 20.8539 21.9824 20.9379 21.1472L19.943 21.0471C19.8604 21.8679 19.7408 22.1692 19.6898 22.2507L20.5377 22.7809ZM20.253 23.0575C20.3552 23.0052 20.4501 22.921 20.5377 22.7809L19.6899 22.2507C19.6837 22.2605 19.69 22.2481 19.7121 22.2271C19.7236 22.2162 19.7383 22.204 19.7561 22.1919C19.7751 22.179 19.7914 22.1704 19.7976 22.1672L20.253 23.0575ZM19.8369 23.1416C20.0153 23.1416 20.1483 23.1111 20.253 23.0575L19.7976 22.1672C19.8124 22.1597 19.8269 22.1535 19.8405 22.1487C19.8535 22.1442 19.863 22.1418 19.8681 22.1408C19.8778 22.1387 19.8699 22.1416 19.8369 22.1416V23.1416ZM18.5703 22.5861C18.8445 22.7766 19.0783 22.9108 19.2765 22.9991C19.4661 23.0835 19.6575 23.1416 19.8369 23.1416V22.1416C19.8594 22.1416 19.8168 22.145 19.6833 22.0855C19.5583 22.0299 19.38 21.9311 19.1409 21.7649L18.5703 22.5861ZM17.0429 21.3574C17.5777 21.8141 18.0904 22.2527 18.5703 22.5861L19.1409 21.7649C18.7105 21.4659 18.2387 21.0636 17.6924 20.597L17.0429 21.3574ZM16.9372 21.267L17.043 21.3574L17.6924 20.5969L17.5866 20.5066L16.9372 21.267ZM15.2061 19.9084C15.7792 20.2847 16.37 20.7829 16.9373 21.2671L17.5865 20.5065C17.0262 20.0283 16.389 19.4888 15.7549 19.0725L15.2061 19.9084ZM13.4752 19.253C14.0464 19.253 14.6403 19.537 15.2061 19.9084L15.7549 19.0725C15.1513 18.6762 14.3508 18.253 13.4752 18.253V19.253ZM11.7443 19.9084C12.3101 19.537 12.904 19.253 13.4752 19.253V18.253C12.5996 18.253 11.7991 18.6762 11.1955 19.0725L11.7443 19.9084ZM10.0132 21.2671C10.5804 20.7829 11.1712 20.2847 11.7443 19.9084L11.1955 19.0725C10.5615 19.4888 9.92423 20.0283 9.36397 20.5065L10.0132 21.2671ZM9.90746 21.3574L10.0133 21.267L9.36389 20.5066L9.25808 20.5969L9.90746 21.3574ZM9.90621 21.3585L9.90626 21.3584L9.25928 20.5959L9.25923 20.5959L9.90621 21.3585ZM8.38018 22.5861C8.86 22.2527 9.37276 21.8141 9.90746 21.3574L9.25799 20.597C8.71173 21.0636 8.23991 21.4659 7.80957 21.7649L8.38018 22.5861ZM7.11352 23.1416C7.29294 23.1416 7.48435 23.0835 7.67394 22.9991C7.87212 22.9108 8.10599 22.7766 8.38018 22.5861L7.80958 21.7649C7.57042 21.9311 7.3921 22.0299 7.26719 22.0855C7.13368 22.145 7.09108 22.1416 7.11352 22.1416V23.1416ZM6.69741 23.0575C6.80214 23.1111 6.93518 23.1416 7.11352 23.1416V22.1416C7.08056 22.1416 7.07262 22.1387 7.08233 22.1408C7.08745 22.1418 7.09699 22.1442 7.10996 22.1487C7.12354 22.1535 7.13806 22.1597 7.15288 22.1672L6.69741 23.0575ZM6.41276 22.7809C6.50033 22.921 6.59521 23.0052 6.69748 23.0575L7.15281 22.1672C7.15909 22.1704 7.17539 22.179 7.19431 22.1919C7.2122 22.204 7.22685 22.2162 7.23835 22.2271C7.26046 22.2481 7.26673 22.2605 7.2606 22.2507L6.41276 22.7809ZM6.01251 21.1472C6.0965 21.9824 6.22956 22.488 6.41276 22.7809L7.2606 22.2507C7.20964 22.1692 7.09003 21.8679 7.00749 21.0471L6.01251 21.1472ZM5.88386 14.4719C5.87847 17.6511 5.87417 19.7714 6.01251 21.1472L7.00749 21.0471C6.87563 19.7358 6.87842 17.682 6.88386 14.4736L5.88386 14.4719ZM5.88386 14.4715L5.88386 14.4717L6.88386 14.4738L6.88386 14.4737L5.88386 14.4715ZM5.88625 12.2752C5.88625 13.0598 5.88502 13.7907 5.88386 14.4717L6.88386 14.4734C6.88501 13.7925 6.88625 13.0608 6.88625 12.2752H5.88625ZM9.56545 10.4688C9.56545 10.3078 9.69602 10.1772 9.8571 10.1772V9.17719C9.14374 9.17719 8.56545 9.75548 8.56545 10.4688H9.56545ZM9.8571 10.7605C9.69602 10.7605 9.56545 10.6299 9.56545 10.4688H8.56545C8.56545 11.1822 9.14374 11.7605 9.8571 11.7605V10.7605ZM17.0928 10.7605H9.8571V11.7605H17.0928V10.7605ZM17.3844 10.4688C17.3844 10.6299 17.2539 10.7605 17.0928 10.7605V11.7605C17.8061 11.7605 18.3844 11.1822 18.3844 10.4688H17.3844ZM17.0928 10.1772C17.2539 10.1772 17.3844 10.3078 17.3844 10.4688H18.3844C18.3844 9.75548 17.8061 9.17719 17.0928 9.17719V10.1772ZM9.8571 10.1772H17.0928V9.17719H9.8571V10.1772Z" fill="#8B8B8B"/>
</g>
</g>
</svg>
