<svg width="16" height="16" viewBox="0 0 16 16" fill="none" xmlns="http://www.w3.org/2000/svg">
<path id="Sao" d="M12.7279 15.0147C12.6222 15.0151 12.5191 14.9818 12.4333 14.9195L8.39827 11.96L4.36328 14.9195C4.27708 14.9827 4.17322 15.0166 4.06673 15.0162C3.96024 15.0158 3.85663 14.9812 3.77088 14.9173C3.68514 14.8534 3.62169 14.7636 3.58973 14.6608C3.55776 14.558 3.55893 14.4477 3.59306 14.3456L5.16677 9.62991L1.08817 6.80024C0.999826 6.73901 0.933148 6.65081 0.897879 6.54852C0.862611 6.44623 0.860601 6.3352 0.892142 6.23167C0.923684 6.12814 0.987124 6.03753 1.07319 5.97307C1.15926 5.90862 1.26345 5.87369 1.37054 5.87341H6.40227L7.92076 1.14565C7.95347 1.04358 8.0173 0.954615 8.10309 0.891518C8.18887 0.82842 8.29221 0.794434 8.39827 0.794434C8.50433 0.794434 8.60767 0.82842 8.69346 0.891518C8.77924 0.954615 8.84307 1.04358 8.87578 1.14565L10.3943 5.875H15.426C15.5332 5.87494 15.6376 5.90962 15.724 5.97396C15.8103 6.03829 15.874 6.12889 15.9057 6.2325C15.9375 6.33611 15.9356 6.44728 15.9004 6.54973C15.8651 6.65218 15.7984 6.74052 15.7099 6.80182L11.6298 9.62991L13.2025 14.3443C13.228 14.4207 13.2352 14.502 13.2235 14.5817C13.2117 14.6614 13.1814 14.7371 13.135 14.8026C13.0887 14.8681 13.0275 14.9215 12.9567 14.9584C12.8859 14.9952 12.8075 15.0146 12.7279 15.0147Z" fill="#FFAD30"/>
</svg>
